<?xml version="1.0" encoding="UTF-8"?>
<!DOCTYPE svg PUBLIC "-//W3C//DTD SVG 1.1//EN" "http://www.w3.org/Graphics/SVG/1.1/DTD/svg11.dtd">
<!-- Creator: CorelDRAW X8 -->
<svg xmlns="http://www.w3.org/2000/svg" xml:space="preserve" width="200px" height="132px" version="1.1" style="shape-rendering:geometricPrecision; text-rendering:geometricPrecision; image-rendering:optimizeQuality; fill-rule:evenodd; clip-rule:evenodd"
viewBox="0 0 200 132"
 xmlns:xlink="http://www.w3.org/1999/xlink">
 <defs>
  <style type="text/css">
   <![CDATA[
    .fil0 {fill:#1FB3C1}
   ]]>
  </style>
 </defs>
 <g id="Capa_x0020_1">
  <metadata id="CorelCorpID_0Corel-Layer"/>
  <path class="fil0" d="M173 36l6 0 0 1 -6 0 0 -1zm0 -2l0 0 6 0 0 0 -6 0 0 0zm0 -3l0 0 6 0 0 1 -6 0 0 -1zm0 -2l0 0 6 0 0 1 -6 0 0 -1zm0 -2l0 0 6 0 0 1 -6 0 0 -1zm0 -2l0 0 6 0 0 1 -6 0 0 -1zm0 -2l0 0 6 0 0 0 -6 0 0 0zm-8 13l0 0 7 0 0 1 -7 0 0 -1zm0 -2l0 0 7 0 0 0 -7 0 0 0zm0 -3l0 0 7 0 0 1 -7 0 0 -1zm0 -2l0 0 7 0 0 1 -7 0 0 -1zm0 -2l0 0 7 0 0 1 -7 0 0 -1zm0 -2l0 0 7 0 0 1 -7 0 0 -1zm0 -2l0 0 7 0 0 0 -7 0 0 0zm-7 13l0 0 6 0 0 1 -6 0 0 -1zm0 -2l0 0 6 0 0 0 -6 0 0 0zm0 -3l0 0 6 0 0 1 -6 0 0 -1zm0 -2l0 0 6 0 0 1 -6 0 0 -1zm0 -2l0 0 6 0 0 1 -6 0 0 -1zm0 -2l0 0 6 0 0 1 -6 0 0 -1zm0 -2l0 0 6 0 0 0 -6 0 0 0zm-25 10l0 0 14 0c1,0 2,1 2,2 0,1 -1,2 -2,2l-14 0c-2,0 -3,-1 -3,-2 0,-1 1,-2 3,-2zm-11 -1l0 0c-2,0 -3,1 -3,3l0 0c0,1 1,3 3,3l26 0c1,0 2,-2 2,-3l0 0c0,-2 -1,-3 -2,-3l-26 0zm-69 -25l0 0 94 0 0 16 -94 0 0 -16zm-3 -4l0 0 0 27 100 0 0 -27 -100 0zm135 107l0 0c3,0 5,2 5,4 0,2 -2,4 -5,4 -2,0 -4,-2 -4,-4 0,-2 2,-4 4,-4zm-170 0l0 0c3,0 5,2 5,4 0,2 -2,4 -5,4 -2,0 -4,-2 -4,-4 0,-2 2,-4 4,-4zm170 -102l0 0c3,0 5,2 5,4 0,3 -2,5 -5,5 -2,0 -4,-2 -4,-5 0,-2 2,-4 4,-4zm-170 0l0 0c3,0 5,2 5,4 0,3 -2,5 -5,5 -2,0 -4,-2 -4,-5 0,-2 2,-4 4,-4zm-13 19l0 0 8 0 0 63 -8 0 0 -63zm107 33l0 0 5 0 0 6 -5 0 0 -6zm-6 0l0 0 5 0 0 6 -5 0 0 -6zm-6 0l0 0 4 0 0 6 -4 0 0 -6zm12 -7l0 0 5 0 0 5 -5 0 0 -5zm-6 0l0 0 5 0 0 5 -5 0 0 -5zm-6 0l0 0 4 0 0 5 -4 0 0 -5zm12 -8l0 0 5 0 0 6 -5 0 0 -6zm-6 0l0 0 5 0 0 6 -5 0 0 -6zm-6 0l0 0 4 0 0 6 -4 0 0 -6zm12 -7l0 0 5 0 0 6 -5 0 0 -6zm-6 0l0 0 5 0 0 6 -5 0 0 -6zm-6 0l0 0 4 0 0 6 -4 0 0 -6zm-3 -1l0 0 0 31 21 0 0 -31 -21 0zm16 42l0 0c0,0 1,1 1,2 0,1 -1,1 -1,1 -1,0 -2,0 -2,-1 0,-1 1,-2 2,-2zm6 0l0 0c1,0 1,1 1,2 0,1 0,1 -1,1 -1,0 -2,0 -2,-1 0,-1 1,-2 2,-2zm6 0l0 0c1,0 2,1 2,2 0,1 -1,1 -2,1 -1,0 -2,0 -2,-1 0,-1 1,-2 2,-2zm6 0l0 0c1,0 2,1 2,2 0,1 -1,1 -2,1 -1,0 -1,0 -1,-1 0,-1 0,-2 1,-2zm7 0l0 0c0,0 1,1 1,2 0,1 -1,1 -1,1 -1,0 -2,0 -2,-1 0,-1 1,-2 2,-2zm6 0l0 0c1,0 1,1 1,2 0,1 0,1 -1,1 -1,0 -2,0 -2,-1 0,-1 1,-2 2,-2zm-33 5l0 0c0,0 1,1 1,2 0,0 -1,1 -1,1 -1,0 -2,-1 -2,-1 0,-1 1,-2 2,-2zm6 0l0 0c1,0 1,1 1,2 0,0 0,1 -1,1 -1,0 -2,-1 -2,-1 0,-1 1,-2 2,-2zm6 0l0 0c1,0 2,1 2,2 0,0 -1,1 -2,1 -1,0 -1,-1 -1,-1 0,-1 0,-2 1,-2zm6 0l0 0c1,0 2,1 2,2 0,0 -1,1 -2,1 -1,0 -1,-1 -1,-1 0,-1 0,-2 1,-2zm7 0l0 0c0,0 1,1 1,2 0,0 -1,1 -1,1 -1,0 -2,-1 -2,-1 0,-1 1,-2 2,-2zm6 0l0 0c1,0 1,1 1,2 0,0 0,1 -1,1 -1,0 -2,-1 -2,-1 0,-1 1,-2 2,-2zm0 10l0 0c1,0 1,0 1,1 0,1 0,2 -1,2 -1,0 -2,-1 -2,-2 0,-1 1,-1 2,-1zm-6 0l0 0c0,0 1,0 1,1 0,1 -1,2 -1,2 -1,0 -2,-1 -2,-2 0,-1 1,-1 2,-1zm-7 0l0 0c1,0 2,0 2,1 0,1 -1,2 -2,2 -1,0 -1,-1 -1,-2 0,-1 0,-1 1,-1zm-6 0l0 0c1,0 2,0 2,1 0,1 -1,2 -2,2 -1,0 -1,-1 -1,-2 0,-1 0,-1 1,-1zm-6 0l0 0c1,0 1,0 1,1 0,1 0,2 -1,2 -1,0 -2,-1 -2,-2 0,-1 1,-1 2,-1zm-6 0l0 0c0,0 1,0 1,1 0,1 -1,2 -1,2 -1,0 -2,-1 -2,-2 0,-1 1,-1 2,-1zm33 -5l0 0c1,0 1,1 1,1 0,1 0,2 -1,2 -1,0 -2,-1 -2,-2 0,0 1,-1 2,-1zm-6 0l0 0c0,0 1,1 1,1 0,1 -1,2 -1,2 -1,0 -2,-1 -2,-2 0,0 1,-1 2,-1zm-7 0l0 0c1,0 2,1 2,1 0,1 -1,2 -2,2 -1,0 -1,-1 -1,-2 0,0 0,-1 1,-1zm-6 0l0 0c1,0 2,1 2,1 0,1 -1,2 -2,2 -1,0 -2,-1 -2,-2 0,0 1,-1 2,-1zm-6 0l0 0c1,0 1,1 1,1 0,1 0,2 -1,2 -1,0 -2,-1 -2,-2 0,0 1,-1 2,-1zm-6 0l0 0c0,0 1,1 1,1 0,1 -1,2 -1,2 -1,0 -2,-1 -2,-2 0,0 1,-1 2,-1zm-7 0l0 0c1,0 2,1 2,1 0,1 -1,2 -2,2 -1,0 -1,-1 -1,-2 0,0 0,-1 1,-1zm38 9l0 0c1,0 1,1 1,2 0,1 0,1 -1,1 -1,0 -2,0 -2,-1 0,-1 1,-2 2,-2zm-6 0l0 0c0,0 1,1 1,2 0,1 -1,1 -1,1 -1,0 -2,0 -2,-1 0,-1 1,-2 2,-2zm-7 0l0 0c1,0 2,1 2,2 0,1 -1,1 -2,1 -1,0 -1,0 -1,-1 0,-1 0,-2 1,-2zm-6 0l0 0c1,0 2,1 2,2 0,1 -1,1 -2,1 -1,0 -2,0 -2,-1 0,-1 1,-2 2,-2zm-6 0l0 0c1,0 1,1 1,2 0,1 0,1 -1,1 -1,0 -2,0 -2,-1 0,-1 1,-2 2,-2zm-6 0l0 0c0,0 1,1 1,2 0,1 -1,1 -1,1 -1,0 -2,0 -2,-1 0,-1 1,-2 2,-2zm-7 0l0 0c1,0 2,1 2,2 0,1 -1,1 -2,1 -1,0 -1,0 -1,-1 0,-1 0,-2 1,-2zm0 -19l0 0c1,0 2,1 2,2 0,1 -1,1 -2,1 -1,0 -1,0 -1,-1 0,-1 0,-2 1,-2zm-54 19l0 0c1,0 2,1 2,1 0,1 -1,2 -2,2 0,0 -1,-1 -1,-2 0,0 1,-1 1,-1zm7 0l0 0c1,0 1,1 1,1 0,1 0,2 -1,2 -1,0 -2,-1 -2,-2 0,0 1,-1 2,-1zm6 0l0 0c1,0 2,1 2,1 0,1 -1,2 -2,2 -1,0 -2,-1 -2,-2 0,0 1,-1 2,-1zm6 0l0 0c1,0 2,1 2,1 0,1 -1,2 -2,2 -1,0 -1,-1 -1,-2 0,0 0,-1 1,-1zm6 0l0 0c1,0 2,1 2,1 0,1 -1,2 -2,2 0,0 -1,-1 -1,-2 0,0 1,-1 1,-1zm7 0l0 0c1,0 1,1 1,1 0,1 0,2 -1,2 -1,0 -2,-1 -2,-2 0,0 1,-1 2,-1zm-33 5l0 0c0,0 1,0 1,1 0,1 -1,2 -1,2 -1,0 -2,-1 -2,-2 0,-1 1,-1 2,-1zm6 0l0 0c1,0 1,0 1,1 0,1 0,2 -1,2 -1,0 -2,-1 -2,-2 0,-1 1,-1 2,-1zm6 0l0 0c1,0 2,0 2,1 0,1 -1,2 -2,2 -1,0 -2,-1 -2,-2 0,-1 1,-1 2,-1zm6 0l0 0c1,0 2,0 2,1 0,1 -1,2 -2,2 -1,0 -1,-1 -1,-2 0,-1 0,-1 1,-1zm7 0l0 0c0,0 1,0 1,1 0,1 -1,2 -1,2 -1,0 -2,-1 -2,-2 0,-1 1,-1 2,-1zm6 0l0 0c1,0 1,0 1,1 0,1 0,2 -1,2 -1,0 -2,-1 -2,-2 0,-1 1,-1 2,-1zm0 9l0 0c1,0 1,1 1,2 0,1 0,1 -1,1 -1,0 -2,0 -2,-1 0,-1 1,-2 2,-2zm-6 0l0 0c0,0 1,1 1,2 0,1 -1,1 -1,1 -1,0 -2,0 -2,-1 0,-1 1,-2 2,-2zm-7 0l0 0c1,0 2,1 2,2 0,1 -1,1 -2,1 -1,0 -1,0 -1,-1 0,-1 0,-2 1,-2zm-6 0l0 0c1,0 2,1 2,2 0,1 -1,1 -2,1 -1,0 -2,0 -2,-1 0,-1 1,-2 2,-2zm-6 0l0 0c1,0 1,1 1,2 0,1 0,1 -1,1 -1,0 -2,0 -2,-1 0,-1 1,-2 2,-2zm-6 0l0 0c0,0 1,1 1,2 0,1 -1,1 -1,1 -1,0 -2,0 -2,-1 0,-1 1,-2 2,-2zm33 -5l0 0c1,0 1,1 1,2 0,1 0,2 -1,2 -1,0 -2,-1 -2,-2 0,-1 1,-2 2,-2zm-7 0l0 0c1,0 2,1 2,2 0,1 -1,2 -2,2 0,0 -1,-1 -1,-2 0,-1 1,-2 1,-2zm-6 0l0 0c1,0 2,1 2,2 0,1 -1,2 -2,2 -1,0 -1,-1 -1,-2 0,-1 0,-2 1,-2zm-6 0l0 0c1,0 2,1 2,2 0,1 -1,2 -2,2 -1,0 -2,-1 -2,-2 0,-1 1,-2 2,-2zm-6 0l0 0c1,0 1,1 1,2 0,1 0,2 -1,2 -1,0 -2,-1 -2,-2 0,-1 1,-2 2,-2zm-7 0l0 0c1,0 2,1 2,2 0,1 -1,2 -2,2 0,0 -1,-1 -1,-2 0,-1 1,-2 1,-2zm-6 0l0 0c1,0 2,1 2,2 0,1 -1,2 -2,2 -1,0 -1,-1 -1,-2 0,-1 0,-2 1,-2zm38 10l0 0c1,0 1,1 1,1 0,1 0,2 -1,2 -1,0 -2,-1 -2,-2 0,0 1,-1 2,-1zm-7 0l0 0c1,0 2,1 2,1 0,1 -1,2 -2,2 0,0 -1,-1 -1,-2 0,0 1,-1 1,-1zm-6 0l0 0c1,0 2,1 2,1 0,1 -1,2 -2,2 -1,0 -1,-1 -1,-2 0,0 0,-1 1,-1zm-6 0l0 0c1,0 2,1 2,1 0,1 -1,2 -2,2 -1,0 -2,-1 -2,-2 0,0 1,-1 2,-1zm-6 0l0 0c1,0 1,1 1,1 0,1 0,2 -1,2 -1,0 -2,-1 -2,-2 0,0 1,-1 2,-1zm-7 0l0 0c1,0 2,1 2,1 0,1 -1,2 -2,2 0,0 -1,-1 -1,-2 0,0 1,-1 1,-1zm-6 0l0 0c1,0 2,1 2,1 0,1 -1,2 -2,2 -1,0 -1,-1 -1,-2 0,0 0,-1 1,-1zm0 -19l0 0c1,0 2,1 2,1 0,1 -1,2 -2,2 -1,0 -1,-1 -1,-2 0,0 0,-1 1,-1zm52 -26l0 0 0 36 54 0 0 -36 -54 0zm-64 16l0 0 -1 0 0 1 0 40 0 1 1 0 63 0 1 0 0 -1 0 -17 63 0 0 0 0 -1 0 -46 0 -1 0 0 -40 0 0 -30 0 -1 -1 0 -46 0 -1 0 0 1 0 54 -39 0zm40 1l0 0 -40 0 0 39 62 0 0 -17 0 -1 1 0 63 0 0 -44 -40 0 -1 0 0 -1 0 -30 -45 0 0 54 0 0 0 0zm-36 2l0 0 0 36 54 0 0 -36 -54 0zm-26 -91l0 0c-5,0 -9,4 -9,10l0 113c0,5 4,9 9,9l182 0c5,0 9,-4 9,-9l0 -113c0,-6 -4,-10 -9,-10l-182 0zm112 40l0 0 6 0 0 1 -6 0 0 -1zm0 4l0 0 6 0 0 1 -6 0 0 -1zm0 3l0 0 6 0 0 1 -6 0 0 -1zm0 4l0 0 6 0 0 1 -6 0 0 -1zm0 3l0 0 6 0 0 1 -6 0 0 -1zm0 4l0 0 6 0 0 1 -6 0 0 -1zm0 3l0 0 6 0 0 1 -6 0 0 -1z"/>
 </g>
</svg>
