<?xml version="1.0" encoding="UTF-8"?>
<!DOCTYPE svg PUBLIC "-//W3C//DTD SVG 1.1//EN" "http://www.w3.org/Graphics/SVG/1.1/DTD/svg11.dtd">
<!-- Creator: CorelDRAW X8 -->
<svg xmlns="http://www.w3.org/2000/svg" xml:space="preserve" width="250px" height="250px" version="1.1" style="shape-rendering:geometricPrecision; text-rendering:geometricPrecision; image-rendering:optimizeQuality; fill-rule:evenodd; clip-rule:evenodd"
viewBox="0 0 250 250"
 xmlns:xlink="http://www.w3.org/1999/xlink">
 <defs>
  <style type="text/css">
   <![CDATA[
    .fil0 {fill:#1FB3C1}
   ]]>
  </style>
 </defs>
 <g id="Слой_x0020_1">
  <metadata id="CorelCorpID_0Corel-Layer"/>
  <g id="_2387894098256">
   <path class="fil0" d="M192 164c0,-8 -1,-16 -2,-24 -2,-30 -5,-65 -16,-89 -9,-21 -28,-28 -50,-25 -44,6 -127,67 -100,111 17,28 48,47 70,68 0,-1 1,-1 1,-1 15,0 31,14 41,23l2 0 2 6 -10 3 -1 -4 -1 1 1 4 1 -1 -7 3 -1 -4 -1 0 1 4 -13 5 -2 -4 -1 0 2 4 -10 4 -2 -7 3 -1c0,-7 0,-14 -3,-20 -9,-20 -57,-38 -80,-74 -38,-63 45,-135 105,-143 32,-4 60,6 74,38 12,28 15,66 18,98 1,8 1,16 2,23l26 -3 3 23 -1 0 0 4 -1 0 -1 -4 -6 1 0 4 -1 0 0 -4 -6 1 0 3 -1 1 -1 -4 -6 0 0 4 -1 0 0 -3 -7 0 1 4 -2 0 0 -4 -6 1 0 4 -1 0 0 -4 -7 1 1 3 -2 1 0 -4 -6 0 0 4 -1 0 -1 -3 -6 0 0 4 -1 0 0 -4 -6 1 0 4 -1 0 -1 -4 -1 0 -2 -23 22 -2zm-93 79l0 0 1 4 1 -1 -1 -4 -1 1zm14 -5l0 0 2 4 1 -1 -2 -4 -1 1zm22 -8l0 0 1 4 1 0 -1 -4 -1 0zm38 -58l0 0 1 9 66 -6 -1 -9 -66 6z"/>
  </g>
 </g>
</svg>
