<?xml version="1.0" encoding="UTF-8"?>
<!DOCTYPE svg PUBLIC "-//W3C//DTD SVG 1.1//EN" "http://www.w3.org/Graphics/SVG/1.1/DTD/svg11.dtd">
<!-- Creator: CorelDRAW X8 -->
<svg xmlns="http://www.w3.org/2000/svg" xml:space="preserve" width="250px" height="250px" version="1.1" style="shape-rendering:geometricPrecision; text-rendering:geometricPrecision; image-rendering:optimizeQuality; fill-rule:evenodd; clip-rule:evenodd"
viewBox="0 0 250 250"
 xmlns:xlink="http://www.w3.org/1999/xlink">
 <defs>
  <style type="text/css">
   <![CDATA[
    .fil0 {fill:#1FB3C1}
   ]]>
  </style>
 </defs>
 <g id="Слой_x0020_1">
  <metadata id="CorelCorpID_0Corel-Layer"/>
  <g id="_2387893536416">
   <path class="fil0" d="M136 91c-1,14 5,26 13,36 0,1 -1,2 -1,3 0,2 2,3 4,3 1,0 2,0 3,-1 9,8 21,13 35,13 2,0 4,0 6,0l0 0c13,0 26,-12 38,-10 -1,5 -2,13 -2,13 -6,18 -12,36 -50,37l-88 -2 0 0c-15,0 -28,-9 -41,-23l7 -5 -11 -13 -7 5c-4,-4 -7,-8 -11,-13l-3 -3 -13 -3 1 13 2 3c4,5 8,10 11,14l-7 6 11 13 8 -6c15,16 32,29 53,29l0 0 88 1c0,0 0,0 0,0 50,-1 58,-24 65,-48 1,-2 0,-16 0,-16l0 -1 1 -98 -24 0c0,-2 -2,-3 -4,-3 -2,0 -3,1 -3,3l-25 0 0 0c0,0 -1,0 -1,0 -13,0 -25,4 -35,11 0,-1 -1,-2 -3,-2 -2,0 -4,1 -4,3 0,2 1,3 3,3 -10,10 -16,23 -16,38zm40 0l0 0c0,3 1,6 3,9l-20 12c-4,-6 -6,-13 -6,-21 0,-2 0,-3 0,-5 9,4 17,6 23,5zm-14 24l0 0c9,-4 15,-8 19,-13 2,2 4,3 7,4l-6 22c-8,-2 -15,-6 -20,-13zm24 14l0 0c4,-9 5,-16 5,-23l0 0c2,0 4,0 6,-1l7 22c-4,2 -8,2 -13,2 -2,0 -3,0 -5,0zm22 -4l0 0c-1,-9 -4,-16 -8,-21 2,-2 4,-4 5,-6l21 11c-4,7 -10,13 -18,16zm20 -20l0 0c-8,-6 -15,-9 -22,-10 1,-1 1,-2 1,-3 0,-2 0,-3 -1,-4l23 -5c1,3 1,6 1,9 0,4 -1,9 -2,13zm0 -26l0 0c-10,1 -17,3 -23,6 -1,-2 -3,-4 -5,-6l14 -18c7,4 12,11 14,18zm-17 -21l0 0c-8,7 -12,14 -14,20 -1,-1 -3,-1 -5,-1 -2,-1 -3,0 -5,0l-7 -22c4,-1 8,-2 12,-1 7,0 13,1 19,4zm-35 -1l0 0c2,9 4,16 8,22 -4,2 -6,5 -7,9l-23 -6c3,-11 11,-21 22,-25zm42 -19l0 0c0,-1 1,-2 2,-2 2,0 2,1 2,2 0,1 -1,2 -2,2 -1,0 -2,-1 -2,-2zm6 89l0 0c0,-1 1,-2 2,-2 1,0 2,1 2,2 0,1 -1,2 -2,2 -1,0 -2,-1 -2,-2zm-74 3l0 0c0,-2 1,-2 2,-2 1,0 2,0 2,2 0,1 -1,2 -2,2 -1,0 -2,-1 -2,-2zm1 -80l0 0c0,-1 1,-2 2,-2 1,0 2,1 2,2 0,1 -1,2 -2,2 -1,0 -2,-1 -2,-2zm-14 21l0 0c-6,0 -14,14 -4,19 -14,0 -19,7 -11,23 0,5 0,10 0,15 9,0 14,0 23,1 6,9 18,15 30,16 -1,2 -1,3 -1,4 -2,4 -4,8 -6,12 1,1 1,2 1,2 5,0 8,2 9,7 5,0 6,-3 6,-8 9,0 19,0 28,0 4,1 7,2 11,3 -10,13 -25,18 -44,16 -27,0 -54,0 -82,0 0,-3 0,-5 0,-8 -1,-8 3,-11 11,-10 4,0 7,0 10,-1 2,-1 3,-2 4,-2 0,-5 -1,-9 -1,-13 -1,0 -2,0 -3,0 0,-1 0,-3 0,-5 -9,0 -18,0 -27,-1 1,-9 1,-18 1,-26 5,-8 10,-15 15,-22 2,0 3,0 5,0 3,-3 6,-5 9,-8 0,-5 0,-10 0,-16 2,0 4,-1 5,-2 3,0 5,0 7,0 1,1 3,3 4,4zm-33 96l0 0c1,0 3,1 3,3 0,2 -2,3 -3,3 -2,0 -4,-1 -4,-3 0,-2 2,-3 4,-3zm66 0l0 0c2,0 4,1 4,3 0,2 -2,3 -4,3 -2,0 -3,-1 -3,-3 0,-2 1,-3 3,-3zm-38 -89l0 0c2,0 4,2 4,4 0,2 -2,3 -4,3 -2,0 -3,-1 -3,-3 0,-2 1,-4 3,-4zm-103 84l0 0 17 -14 7 9 -17 14 -7 -9zm23 -17l0 0 22 -19 6 7 -22 18 -6 -6zm-50 42l0 0 21 -19 6 7 -21 18 -6 -6zm173 16l0 0 -72 0c-2,0 -4,1 -4,4l0 4c0,3 2,4 4,4l72 0c2,0 4,-1 4,-4l0 -4c0,-3 -2,-4 -4,-4zm-69 2l0 0c2,0 3,2 3,4 0,2 -1,4 -3,4 -2,0 -4,-2 -4,-4 0,-2 2,-4 4,-4zm66 0l0 0c2,0 4,2 4,4 0,2 -2,4 -4,4 -2,0 -3,-2 -3,-4 0,-2 1,-4 3,-4z"/>
  </g>
 </g>
</svg>
