<?xml version="1.0" encoding="UTF-8"?>
<!DOCTYPE svg PUBLIC "-//W3C//DTD SVG 1.1//EN" "http://www.w3.org/Graphics/SVG/1.1/DTD/svg11.dtd">
<!-- Creator: CorelDRAW X8 -->
<svg xmlns="http://www.w3.org/2000/svg" xml:space="preserve" width="250px" height="250px" version="1.1" style="shape-rendering:geometricPrecision; text-rendering:geometricPrecision; image-rendering:optimizeQuality; fill-rule:evenodd; clip-rule:evenodd"
viewBox="0 0 250 250"
 xmlns:xlink="http://www.w3.org/1999/xlink">
 <defs>
  <style type="text/css">
   <![CDATA[
    .fil0 {fill:#1FB3C1}
   ]]>
  </style>
 </defs>
 <g id="Capa_x0020_1">
  <metadata id="CorelCorpID_0Corel-Layer"/>
  <path class="fil0" d="M116 108c-5,-2 -9,-3 -13,-3 -1,0 -1,0 -2,0 -5,0 -10,2 -13,3 -1,0 -2,0 -3,1l-8 29c6,-2 11,-3 16,-3 7,0 13,2 17,5 2,-7 8,-25 9,-30 -1,-1 -2,-1 -3,-2zm11 8l0 0c3,2 10,5 19,5 5,0 10,-1 15,-2l-8 28c-6,3 -12,4 -18,4 -6,0 -14,-5 -17,-6l9 -29zm-23 -21l0 0c8,0 13,3 17,5l9 -29c-2,-1 -6,-4 -10,-5 -2,0 -5,-1 -7,-1 -5,0 -10,2 -16,4l-9 29c6,-2 12,-3 16,-3 0,0 0,0 0,0zm69 -16l0 0 -8 28 -1 0 0 1c-5,2 -11,4 -16,4 -7,0 -13,-2 -19,-6l9 -30c4,3 10,6 19,6 5,0 10,-1 16,-3zm75 110l0 0c0,0 -1,0 -1,0l-244 0c0,0 -1,0 -1,0 0,1 0,1 0,1 0,1 4,23 32,23l182 0c28,0 32,-22 32,-23 0,0 0,0 0,-1zm-105 16l0 0 -36 0 0 -8 36 0 0 8zm-134 -25l0 0c-3,0 -5,-2 -5,-5l0 -133c0,-3 2,-5 5,-5l234 0c2,0 5,2 5,5l0 133c0,3 -3,5 -5,5l-234 0zm12 -126l0 0 209 0 0 109 -209 0 0 -109z"/>
 </g>
</svg>
