<?xml version="1.0" encoding="UTF-8"?>
<!DOCTYPE svg PUBLIC "-//W3C//DTD SVG 1.1//EN" "http://www.w3.org/Graphics/SVG/1.1/DTD/svg11.dtd">
<!-- Creator: CorelDRAW X8 -->
<svg xmlns="http://www.w3.org/2000/svg" xml:space="preserve" width="250px" height="250px" version="1.1" style="shape-rendering:geometricPrecision; text-rendering:geometricPrecision; image-rendering:optimizeQuality; fill-rule:evenodd; clip-rule:evenodd"
viewBox="0 0 250 250"
 xmlns:xlink="http://www.w3.org/1999/xlink">
 <defs>
  <style type="text/css">
   <![CDATA[
    .fil0 {fill:#1FB3C1}
   ]]>
  </style>
 </defs>
 <g id="Capa_x0020_1">
  <metadata id="CorelCorpID_0Corel-Layer"/>
  <g id="_1927498255184">
   <path class="fil0" d="M70 110c-2,1 -5,1 -6,-1 -1,-2 -1,-5 1,-6 5,-3 13,-6 21,-8 12,-3 26,-4 35,-5l0 0c2,-1 11,-2 22,-3 -1,-1 -2,-1 -3,-1 -4,0 -7,-1 -10,-1 -8,-2 -16,-3 -25,-2 -7,1 -15,2 -22,4 -7,2 -13,5 -16,9 -5,5 -7,9 -7,13 -1,3 1,5 5,6 2,0 3,1 5,1 0,0 0,-1 0,-1 -1,-3 1,-5 3,-5 20,-4 36,-7 52,-12 0,0 1,0 1,0 -2,0 -3,0 -3,0l-1 0c0,0 0,0 0,0 -9,1 -22,3 -34,6 -7,1 -14,4 -18,6zm118 26l0 0 -156 0 0 35 156 0 0 -35zm-157 -2l0 0 158 0 1 0 0 1 0 37 0 1 -1 0 -158 0 -1 0 0 -1 0 -37 0 -1 1 0zm10 46l0 0 64 0 0 8 -64 0 0 -8zm-12 -53l0 0 166 0c1,0 1,0 2,0l0 0 -1 -1 2 -1c2,4 4,8 4,13l-1 0 0 51c0,3 -3,6 -6,6l-166 0c-3,0 -6,-3 -6,-6l0 -56c0,-3 3,-6 6,-6zm-6 -55l0 0 14 15c-3,4 -6,7 -10,9l-13 -15c-2,-2 -2,-4 0,-5l4 -4c1,-1 4,-1 5,0zm15 16l0 0c-2,4 -6,7 -10,9l3 3c3,-3 7,-5 10,-9l-3 -3zm4 4l0 0c-3,4 -6,7 -10,9l2 2c4,-2 7,-5 10,-9l-2 -2zm3 4l0 0c-3,3 -6,6 -10,8l2 3c4,-3 7,-5 10,-9l-2 -2zm3 3l0 0 4 5 0 0c1,-4 4,-9 8,-14 5,-5 13,-9 21,-11 7,-2 16,-4 22,-5 11,-1 20,1 29,2 3,1 6,1 9,2 6,1 12,1 18,3 2,0 3,0 5,0 3,-1 6,-3 9,-5 33,-19 51,-23 62,-20 5,1 8,4 10,8 2,4 3,8 2,12 -1,11 -7,22 -9,23 -15,6 -25,6 -35,3 -32,10 -82,22 -115,23 -10,1 -19,0 -26,-2 -7,-3 -11,-7 -11,-13l-3 3c-2,1 -4,1 -6,-1l-4 -4c4,-2 7,-5 10,-9zm-42 -39l0 0 2 1 -4 3 -1 -1 3 -3zm3 3l0 0 -3 3 7 8 3 -3 -7 -8zm171 19l0 0c28,-3 56,-4 57,1 0,0 0,1 0,1 1,-2 1,-5 2,-8 0,-3 0,-6 -1,-8 -1,-2 -3,-3 -6,-4 -8,-2 -23,2 -52,18zm49 4l0 0c0,-2 -17,0 -38,3 2,0 3,1 5,1 2,1 5,2 7,3 2,-1 4,-1 6,-2 14,-5 20,-4 20,-5zm-59 5l0 0c2,1 4,1 6,2 5,1 9,3 13,4 -31,9 -72,18 -101,20 -2,0 -4,0 -6,0 17,-3 32,-6 46,-11 11,-3 21,-8 32,-13 3,-1 7,-1 10,-2zm67 -5l0 0c-2,3 -5,5 -12,8 3,0 6,-1 10,-3 0,0 1,-2 2,-5zm-29 35l0 0c3,4 4,9 5,13l3 -1c-1,-4 -2,-9 -4,-13l-4 1zm-4 2l0 0c3,4 4,8 4,12l3 -1c0,-4 -2,-8 -4,-12l-3 1zm-5 2l0 0c3,3 4,8 5,12l3 -1c-1,-4 -2,-9 -4,-13l-4 2zm32 -22l0 0c2,5 -1,11 -7,17 -1,-2 -3,-3 -5,-2l-6 2c2,4 4,8 4,12l6 -2c2,0 3,-3 3,-5l-1 -1c9,-6 14,-13 11,-22 -1,0 -3,1 -5,1z"/>
  </g>
 </g>
</svg>
