<?xml version="1.0" encoding="UTF-8"?>
<!DOCTYPE svg PUBLIC "-//W3C//DTD SVG 1.1//EN" "http://www.w3.org/Graphics/SVG/1.1/DTD/svg11.dtd">
<!-- Creator: CorelDRAW X8 -->
<svg xmlns="http://www.w3.org/2000/svg" xml:space="preserve" width="250px" height="250px" version="1.1" style="shape-rendering:geometricPrecision; text-rendering:geometricPrecision; image-rendering:optimizeQuality; fill-rule:evenodd; clip-rule:evenodd"
viewBox="0 0 250 250"
 xmlns:xlink="http://www.w3.org/1999/xlink">
 <defs>
  <style type="text/css">
   <![CDATA[
    .fil0 {fill:#1FB3C1}
   ]]>
  </style>
 </defs>
 <g id="Capa_x0020_1">
  <metadata id="CorelCorpID_0Corel-Layer"/>
  <g id="_1927487019664">
   <path class="fil0" d="M2 95l246 0 0 60 -246 0 0 -60zm3 5l0 0 0 50 19 0 0 -50 -19 0zm218 0l0 0 0 50 19 0 0 -50 -19 0zm-122 0l0 0c-2,0 -4,2 -4,5l0 40c0,3 2,5 4,5l109 0c2,0 4,-2 4,-5l0 -40c0,-3 -2,-5 -4,-5l-109 0zm2 5l0 0 0 40 105 0 0 -40 -105 0zm4 3l0 0 0 34 11 0 0 -34 -11 0zm97 0l0 0 -8 0 0 34 8 0 0 -34zm-13 0l0 0 -8 0 0 34 8 0 0 -34zm-14 0l0 0 -9 0 0 34 9 0 0 -34zm-15 0l0 0 -11 0 0 34 11 0 0 -34zm-16 0l0 0 -10 0 0 34 10 0 0 -34zm-16 0l0 0 -8 0 0 34 8 0 0 -34zm-68 37l0 0c0,-1 -1,-2 -2,-2l0 -6 -1 0 0 6c-1,0 -2,1 -2,2 0,2 1,3 3,3 1,0 2,-1 2,-3zm-7 0l0 0c0,-1 -1,-2 -2,-2l0 -6 -1 0 0 6c-1,0 -2,1 -2,2 0,2 1,3 2,3 2,0 3,-1 3,-3zm15 0l0 0c0,-1 -1,-2 -2,-2l0 -6 -1 0 0 6c-1,0 -2,1 -2,2 0,2 1,3 3,3 1,0 2,-1 2,-3zm-8 -40l0 0c0,-2 -1,-3 -2,-3 -2,0 -3,1 -3,3 0,1 1,2 2,2l0 6 1 0 0 -6c1,0 2,-1 2,-2zm-7 0l0 0c0,-2 -1,-3 -3,-3 -1,0 -2,1 -2,3 0,1 1,2 2,2l0 6 1 0 0 -6c1,0 2,-1 2,-2zm15 0l0 0c0,-2 -1,-3 -2,-3 -2,0 -3,1 -3,3 0,1 1,2 2,2l0 6 1 0 0 -6c1,0 2,-1 2,-2zm-26 9l0 0 0 3 -6 0c-1,-1 -1,-2 -3,-2 -1,0 -2,1 -2,2 0,2 1,3 2,3 2,0 2,-1 3,-2l6 0 0 7 -6 0c-1,-1 -1,-2 -3,-2 -1,0 -2,1 -2,2 0,2 1,3 2,3 2,0 2,-1 3,-2l6 0 0 6 -6 0c-1,-1 -1,-2 -3,-2 -1,0 -2,1 -2,3 0,1 1,2 2,2 2,0 2,-1 3,-2l6 0 0 3 32 0 0 -3 6 0c1,1 1,2 3,2 1,0 2,-1 2,-2 0,-2 -1,-3 -2,-3 -2,0 -2,1 -3,2l-6 0 0 -6 6 0c1,1 1,2 3,2 1,0 2,-1 2,-3 0,-1 -1,-2 -2,-2 -2,0 -2,1 -3,2l-6 0 0 -7 6 0c1,1 1,2 3,2 1,0 2,-1 2,-3 0,-1 -1,-2 -2,-2 -2,0 -2,1 -3,2l-6 0 0 -3 -32 0z"/>
  </g>
 </g>
</svg>
