<?xml version="1.0" encoding="UTF-8"?>
<!DOCTYPE svg PUBLIC "-//W3C//DTD SVG 1.1//EN" "http://www.w3.org/Graphics/SVG/1.1/DTD/svg11.dtd">
<!-- Creator: CorelDRAW X8 -->
<svg xmlns="http://www.w3.org/2000/svg" xml:space="preserve" width="250px" height="250px" version="1.1" style="shape-rendering:geometricPrecision; text-rendering:geometricPrecision; image-rendering:optimizeQuality; fill-rule:evenodd; clip-rule:evenodd"
viewBox="0 0 250 250"
 xmlns:xlink="http://www.w3.org/1999/xlink">
 <defs>
  <style type="text/css">
   <![CDATA[
    .fil0 {fill:#1FB3C1}
   ]]>
  </style>
 </defs>
 <g id="Capa_x0020_1">
  <metadata id="CorelCorpID_0Corel-Layer"/>
  <g id="_1892394305968">
   <path class="fil0" d="M10 0l230 0c6,0 10,4 10,10l0 230c0,6 -4,10 -10,10l-230 0c-6,0 -10,-4 -10,-10l0 -230c0,-6 4,-10 10,-10zm54 68l0 0 -22 0 0 20 0 115 22 0 0 -135zm-49 15l0 0 0 10 17 0 0 16 -17 0 0 10 17 0 0 15 -18 0 0 10 18 0 0 15 -17 0 0 10 17 0 0 10 -18 0 0 10 18 0 0 19 0 5 5 0 32 0 5 0 0 -5 0 -23 12 0 0 22 5 0 0 4 58 0 0 24 6 0 0 3 32 0 0 -10 -28 0 0 -22 -3 0 0 -5 -60 0 0 -23 -5 0 0 -3 -17 0 0 -10 49 0 0 16 5 0 0 4 69 0 0 -4 5 0 0 -22 32 0 0 -10 -37 0 0 4 -5 0 0 22 -59 0 0 -15 -4 0 0 -5 -55 0 0 -15 162 0 0 -10 -162 0 0 -16 56 0 0 -5 4 0 0 -65 47 0 0 21 -32 0 0 5 -4 0 0 42 5 0 0 3 83 0 0 -10 -78 0 0 -30 30 0 0 -4 6 0 0 -33 -4 0 0 -4 -57 0 0 5 -6 0 0 65 -50 0 0 -16 36 0 0 -4 5 0 0 -22 -5 0 0 -4 -14 0 0 -15 16 0 0 -5 4 0 0 -26 -10 0 0 21 -16 0 0 4 -4 0 0 27 4 0 0 4 15 0 0 10 -31 0 0 -15 0 -5 -5 0 -32 0 -5 0 0 5 0 20 -17 0z"/>
  </g>
 </g>
</svg>
