<?xml version="1.0" encoding="UTF-8"?>
<!DOCTYPE svg PUBLIC "-//W3C//DTD SVG 1.1//EN" "http://www.w3.org/Graphics/SVG/1.1/DTD/svg11.dtd">
<!-- Creator: CorelDRAW X8 -->
<svg xmlns="http://www.w3.org/2000/svg" xml:space="preserve" width="250px" height="250px" version="1.1" style="shape-rendering:geometricPrecision; text-rendering:geometricPrecision; image-rendering:optimizeQuality; fill-rule:evenodd; clip-rule:evenodd"
viewBox="0 0 250 250"
 xmlns:xlink="http://www.w3.org/1999/xlink">
 <defs>
  <style type="text/css">
   <![CDATA[
    .fil0 {fill:#1FB3C1}
   ]]>
  </style>
 </defs>
 <g id="Capa_x0020_1">
  <metadata id="CorelCorpID_0Corel-Layer"/>
  <g id="_1927487748304">
   <path class="fil0" d="M50 28l150 0 0 194 -150 0 0 -194zm5 6l0 0 0 182 140 0 0 -182 -140 0zm24 31l0 0 0 120 92 0 0 -120 -92 0zm-24 -62l0 0 16 0 0 23 -16 0 0 -23zm30 0l0 0 16 0 0 23 -16 0 0 -23zm30 0l0 0 17 0 0 23 -17 0 0 -23zm31 0l0 0 16 0 0 23 -16 0 0 -23zm30 0l0 0 17 0 0 23 -17 0 0 -23zm-120 221l0 0 16 0 0 23 -16 0 0 -23zm30 0l0 0 17 0 0 23 -17 0 0 -23zm30 0l0 0 17 0 0 23 -17 0 0 -23zm31 0l0 0 16 0 0 23 -16 0 0 -23zm30 0l0 0 17 0 0 23 -17 0 0 -23zm-152 -166l0 0 0 -16 23 0 0 16 -23 0zm0 31l0 0 0 -17 23 0 0 17 -23 0zm0 30l0 0 0 -16 23 0 0 16 -23 0zm0 30l0 0 0 -16 23 0 0 16 -23 0zm0 31l0 0 0 -17 23 0 0 17 -23 0zm0 29l0 0 0 -16 23 0 0 16 -23 0zm177 -151l0 0 0 -16 23 0 0 16 -23 0zm0 31l0 0 0 -17 23 0 0 17 -23 0zm0 30l0 0 0 -16 23 0 0 16 -23 0zm0 30l0 0 0 -16 23 0 0 16 -23 0zm0 31l0 0 0 -17 23 0 0 17 -23 0zm0 29l0 0 0 -16 23 0 0 16 -23 0zm-115 -72l0 0 9 0c4,0 6,0 8,-1 1,-2 2,-3 2,-6 0,-2 0,-3 -1,-4 -1,-1 -2,-2 -4,-2 1,-1 2,-2 2,-2 1,-1 1,-2 1,-3 0,-2 0,-3 -1,-4 0,-1 -1,-1 -2,-2 0,0 -1,0 -2,0 -1,0 -2,0 -4,0l-8 0 0 24zm6 -10l0 0 0 6 3 0c2,0 3,0 4,0 0,-1 1,-2 1,-3 0,-1 -1,-2 -1,-3 -1,0 -2,0 -4,0l-3 0zm0 -10l0 0 0 6 2 0c1,0 2,0 3,-1 1,0 1,-1 1,-2 0,-1 0,-2 -1,-3 -1,0 -2,0 -3,0l-2 0zm19 20l0 0 5 0 0 -24 -5 0 0 24zm21 -4l0 0c2,0 3,-1 4,-2 1,-2 1,-4 1,-6 0,-2 0,-4 -1,-6 -1,-1 -2,-2 -4,-2 -1,0 -3,1 -3,2 -1,2 -2,4 -2,6 0,2 1,4 2,6 1,1 2,2 3,2zm0 5l0 0c2,0 3,0 5,-1 1,0 2,-1 3,-3 1,-1 2,-2 2,-4 1,-1 1,-3 1,-5 0,-2 0,-4 -1,-5 0,-2 -1,-3 -2,-5 -1,-1 -2,-2 -3,-2 -2,-1 -3,-1 -5,-1 -1,0 -3,0 -4,1 -1,0 -2,1 -3,2 -1,2 -2,3 -3,5 0,1 0,3 0,5 0,2 0,4 0,5 1,2 2,3 3,4 1,2 2,3 3,3 1,1 3,1 4,1zm25 -15l0 0 -3 -1c-1,-1 -2,-1 -2,-1 0,-1 0,-1 0,-2 0,-1 0,-1 0,-2 1,0 1,-1 2,-1 1,0 2,1 2,1 1,0 1,1 2,2l3 -4c-1,-1 -2,-2 -3,-2 -1,-1 -2,-1 -4,-1 -2,0 -4,1 -6,2 -1,2 -2,3 -2,5 0,2 1,3 1,4 1,1 2,2 4,3l3 2c1,0 2,1 2,1 0,0 0,1 0,2 0,0 0,1 0,2 -1,0 -2,1 -3,1 -1,0 -1,-1 -2,-1 -1,-1 -2,-1 -2,-2l-3 3c1,2 2,3 3,3 2,1 3,1 5,1 2,0 4,-1 5,-2 2,-2 3,-4 3,-6 0,-1 -1,-3 -2,-4 0,-1 -2,-2 -3,-3z"/>
  </g>
 </g>
</svg>
