<?xml version="1.0" encoding="UTF-8"?>
<!DOCTYPE svg PUBLIC "-//W3C//DTD SVG 1.1//EN" "http://www.w3.org/Graphics/SVG/1.1/DTD/svg11.dtd">
<!-- Creator: CorelDRAW X8 -->
<svg xmlns="http://www.w3.org/2000/svg" xml:space="preserve" width="250px" height="250px" version="1.1" style="shape-rendering:geometricPrecision; text-rendering:geometricPrecision; image-rendering:optimizeQuality; fill-rule:evenodd; clip-rule:evenodd"
viewBox="0 0 250 250"
 xmlns:xlink="http://www.w3.org/1999/xlink">
 <defs>
  <style type="text/css">
   <![CDATA[
    .fil0 {fill:#1FB3C1}
   ]]>
  </style>
 </defs>
 <g id="Capa_x0020_1">
  <metadata id="CorelCorpID_0Corel-Layer"/>
  <path class="fil0" d="M249 190c0,0 0,0 -1,0l-246 0c-1,0 -1,0 -1,0 -1,1 -1,1 -1,1 0,1 4,23 33,23l184 0c29,0 33,-22 33,-23 0,0 0,0 -1,-1zm-105 16l0 0 -38 0 0 -8 38 0 0 8zm-137 -25l0 0 237 0c3,0 5,-2 5,-5l0 -135c0,-3 -2,-5 -5,-5l-237 0c-3,0 -5,2 -5,5l0 135c0,3 2,5 5,5zm13 -127l0 0 211 0 0 109 -211 0 0 -109zm179 104l0 0 -14 -16 -9 14 -7 -37 38 11 -17 7 15 16 -6 5zm-167 -93l0 0 182 0 0 50 -182 0 0 -50zm65 8l0 0 -11 35 -10 0 -5 -19 -4 19 -10 0 -11 -35 13 0 5 17 4 -17 10 0 4 17 5 -17 10 0zm52 0l0 0 -11 35 -10 0 -5 -19 -5 19 -9 0 -11 -35 13 0 5 17 4 -17 10 0 4 17 5 -17 10 0zm52 0l0 0 -11 35 -10 0 -5 -19 -5 19 -9 0 -11 -35 13 0 4 17 5 -17 10 0 4 17 5 -17 10 0z"/>
 </g>
</svg>
