<?xml version="1.0" encoding="UTF-8"?>
<!DOCTYPE svg PUBLIC "-//W3C//DTD SVG 1.1//EN" "http://www.w3.org/Graphics/SVG/1.1/DTD/svg11.dtd">
<!-- Creator: CorelDRAW X8 -->
<svg xmlns="http://www.w3.org/2000/svg" xml:space="preserve" width="250px" height="250px" version="1.1" style="shape-rendering:geometricPrecision; text-rendering:geometricPrecision; image-rendering:optimizeQuality; fill-rule:evenodd; clip-rule:evenodd"
viewBox="0 0 250 250"
 xmlns:xlink="http://www.w3.org/1999/xlink">
 <defs>
  <style type="text/css">
   <![CDATA[
    .fil0 {fill:#1FB3C1}
   ]]>
  </style>
 </defs>
 <g id="Capa_x0020_1">
  <metadata id="CorelCorpID_0Corel-Layer"/>
  <g id="_1927498257872">
   <g>
    <g>
     <path class="fil0" d="M3 145l217 -119 9 16 -4 1 3 6 4 -2 4 8 -4 1 3 6 4 -2 8 16 -85 46 -1 -2c-1,-2 -3,-2 -4,-1 -2,0 -2,2 -2,4l2 2 -21 12 -4 1 1 -1 -2 -4 -2 0 3 5 -3 0 -2 -3 -1 0 2 4 -3 0 -1 -2 -2 0 2 3 -3 0 -1 -2 -1 1 1 1 -3 1 0 -1 -1 1 0 0 -22 5 133 -73c0,0 0,0 1,0l0 0 4 -8c0,0 0,0 0,-1l-10 -19c-1,-1 -1,-1 -1,0 -1,0 -1,0 0,0l10 20 -5 7 -137 75 -6 1 142 -77c0,0 1,0 1,-1l2 -5c0,0 0,0 0,-1l-7 -16c-1,0 -1,0 -1,0 -1,0 -1,0 -1,1l8 16 -2 5 -146 79 -18 4 13 -7 -10 -18 -15 9 10 17 -12 2 -7 -14 -15 8 23 -18c-1,0 -1,0 -1,0l-2 8 -8 -2c-1,0 -1,0 -1,0l-12 6 0 0c0,1 0,1 0,1l-2 6c0,0 0,0 0,1l3 5c0,0 0,0 1,0 0,0 0,0 0,0 0,0 1,0 1,0 0,0 0,0 0,0 1,0 1,0 1,0l2 3 -17 4 -10 -19zm45 -13l0 0 -23 18 3 6c-1,0 -1,0 -2,0l-3 -5 2 -6 11 -6 9 3c1,0 1,0 1,-1 0,0 0,0 0,0l2 -8 13 -7 8 2c1,0 1,0 1,0l3 -8 38 -21 6 1c0,0 0,0 0,0l5 -2c0,0 0,-1 0,-1l0 0 1 -4 4 -1c0,0 0,0 0,-1l0 0 0 -1 10 -6 8 2c1,0 1,0 1,0l4 -9 12 -7 8 3c0,0 1,-1 1,-1l0 0 3 -8 12 -7 8 2c1,0 1,0 1,0l3 -8 11 -6 8 2c1,0 1,0 1,0 0,-1 0,-1 0,-1l-9 -3 0 0c0,0 0,0 0,0l-12 7c0,0 0,0 0,0l-3 8 -8 -3c0,0 0,0 0,1l-13 7c0,0 0,0 0,1l-3 7 -8 -2 0 0c0,0 0,0 0,0l-13 7c0,0 0,0 0,0l-4 9 -8 -2 0 0c0,-1 0,-1 0,0l-10 6c-1,0 -1,0 -1,0l0 2 -4 1c0,0 0,1 0,1l-1 4 -4 2 -6 -2 0 0c0,0 0,0 0,0l-39 22 0 0c0,0 0,0 0,0l-3 8 -8 -2 0 0c0,0 -1,0 -1,0l-12 6 0 1zm85 -1l0 0 2 5 2 -1 -3 -4 -1 0zm3 -1l0 0 3 4 1 -1 -2 -4 -2 1zm4 -2l0 0 2 4 2 0 -3 -5 -1 1zm3 -2l0 0 3 4 1 0 -2 -5 -2 1zm4 -2l0 0 2 4 2 0 -3 -5 -1 1zm3 -2l0 0 3 4 1 0 -2 -5 -2 1zm11 -6l0 0 2 5 2 -1 -3 -5 -1 1zm3 -2l0 0 3 5 1 -1 -2 -4 -2 0zm4 -2l0 0 2 5 2 -1 -3 -4 -1 0zm3 -2l0 0 3 5 1 -1 -2 -4 -2 0zm4 -2l0 0 2 5 2 -1 -3 -4 -1 0zm3 -2l0 0 3 5 1 -1 -2 -4 -2 0zm4 -1l0 0 2 4 2 -1 -3 -4 -1 1zm3 -2l0 0 3 4 1 0 -2 -5 -2 1zm4 -2l0 0 2 4 2 0 -3 -5 -1 1zm3 -2l0 0 3 4 1 0 -3 -5 -1 1zm4 -2l0 0 2 4 1 0 -2 -5 -1 1zm3 -2l0 0 3 5 1 -1 -3 -5 -1 1zm4 -2l0 0 2 5 1 -1 -2 -5 -1 1zm3 -2l0 0 3 5 1 -1 -3 -5 -1 1zm4 -2l0 0 2 5 1 -1 -2 -4 -1 0zm3 -2l0 0 3 5 1 -1 -3 -4 -1 0zm4 -2l0 0 2 5 1 -1 -2 -4 -1 0zm3 -2l0 0 3 5 1 -1 -3 -4 -1 0zm4 -1l0 0 2 4 1 -1 -2 -4 -1 1zm3 -2l0 0 3 4 1 0 -3 -5 -1 1zm4 -2l0 0 2 4 1 0 -2 -5 -1 1zm3 -2l0 0 3 4 1 0 -3 -5 -1 1zm7 -3l0 0c-1,0 -1,1 -1,2 1,1 2,2 3,1 1,0 1,-2 1,-3 -1,-1 -2,-1 -3,0zm-168 51l0 0 10 17 15 -8 -10 -18 -15 9zm24 -13l0 0 9 17 15 -8 -9 -18 -15 9zm28 -16l0 0 10 18 15 -9 -10 -17 -15 8zm25 -14l0 0 9 18 16 -8 -10 -18 -15 8zm24 -13l0 0 10 17 15 -8 -9 -17 -16 8zm24 -13l0 0 9 18 15 -9 -9 -17 -15 8z"/>
    </g>
    <g>
     <path class="fil0" d="M3 171l231 -50 4 17 -4 1 1 6 4 -1 2 8 -4 0 1 6 4 -1 4 17 -91 20 0 -3c-1,-2 -2,-3 -4,-3 -1,1 -2,2 -2,4l0 3 -134 29 -3 -12 5 -1 -1 -6 -5 1 -2 -8 5 -1 -1 -6 -5 1 -5 -21zm45 0l0 0c0,0 0,0 0,0l-5 7 -7 -5c0,0 0,0 0,0l-13 3 0 0c0,0 0,0 0,0l-4 6 0 0c0,0 0,0 0,0l2 6c0,0 0,0 0,0 0,0 0,0 1,0 0,0 0,0 0,0 0,1 0,1 1,1 0,0 0,-1 0,-1l3 12 16 -3 -4 -19 -16 3 26 -10zm0 0l0 0 -26 10 1 7c0,-1 0,-1 -1,-1l-2 -5 4 -5 12 -2 7 4c0,1 1,1 1,0 0,0 0,0 0,0l5 -7 12 -3 8 4c0,1 0,1 1,0l4 -6 41 -9 5 3c0,0 0,0 0,0l5 -1c0,0 0,0 0,0l0 0 2 -4 4 0c0,0 0,0 0,0l0 0 1 -2 11 -2 7 4c0,0 0,0 1,0l0 0 5 -7 13 -3 7 4c0,0 1,0 1,0l5 -6 13 -4 7 5c0,0 0,0 1,-1l5 -6 11 -3 7 5c0,0 1,0 1,-1 0,0 0,0 0,0l-7 -5 0 0c0,0 -1,0 -1,0l-12 3c0,0 0,0 0,0l-5 6 -7 -4c0,0 0,0 0,0l-14 4c0,0 0,0 0,0l-5 6 -6 -4c0,0 -1,0 -1,0l-13 2c0,0 0,1 -1,1l-5 7 -7 -5c0,0 0,0 0,0l-11 3c0,0 0,0 -1,0l0 2 -4 0c-1,0 -1,0 -1,0l-2 4 -4 1 -4 -3 0 0c0,0 -1,0 -1,0l-41 8 0 0c0,0 -1,1 -1,1l-4 6 -7 -4 0 0c0,0 0,0 -1,0l-13 3 0 0zm-26 45l0 0 1 5 1 0 -1 -5 -1 0zm4 -1l0 0 1 5 1 0 -1 -5 -1 0zm4 0l0 0 1 4 1 0 -1 -5 -1 1zm3 -1l0 0 1 5 2 -1 -1 -4 -2 0zm4 -1l0 0 1 5 1 0 -1 -5 -1 0zm4 -1l0 0 1 5 1 0 -1 -5 -1 0zm3 -1l0 0 1 5 2 0 -1 -5 -2 0zm4 0l0 0 1 4 1 0 -1 -5 -1 1zm4 -1l0 0 1 5 1 -1 -1 -4 -1 0zm4 -1l0 0 1 5 1 0 -1 -5 -1 0zm3 -1l0 0 1 5 2 0 -2 -5 -1 0zm4 -1l0 0 1 5 1 0 -1 -5 -1 0zm4 0l0 0 1 4 1 0 -1 -5 -1 1zm3 -1l0 0 1 5 2 -1 -1 -4 -2 0zm4 -1l0 0 1 5 1 0 -1 -5 -1 0zm4 -1l0 0 1 5 1 0 -1 -5 -1 0zm4 -1l0 0 1 5 1 0 -1 -5 -1 0zm3 0l0 0 1 4 2 0 -2 -5 -1 1zm4 -1l0 0 1 5 1 -1 -1 -4 -1 0zm4 -1l0 0 1 5 1 0 -1 -5 -1 0zm3 -1l0 0 1 5 2 0 -1 -5 -2 0zm4 -1l0 0 1 5 1 0 -1 -5 -1 0zm4 0l0 0 1 4 1 0 -1 -5 -1 1zm3 -1l0 0 2 5 1 -1 -1 -4 -2 0zm4 -1l0 0 1 5 1 0 -1 -5 -1 0zm4 -1l0 0 1 5 1 0 -1 -5 -1 0zm4 -1l0 0 1 5 1 0 -1 -5 -1 0zm3 0l0 0 1 4 2 0 -1 -5 -2 1zm4 -1l0 0 1 5 1 -1 -1 -4 -1 0zm4 -1l0 0 1 5 1 0 -1 -5 -1 0zm3 -1l0 0 2 5 1 0 -1 -5 -2 0zm4 -1l0 0 1 5 1 0 -1 -5 -1 0zm4 0l0 0 1 4 1 0 -1 -5 -1 1zm4 -1l0 0 1 5 1 -1 -1 -4 -1 0zm11 -3l0 0 1 5 1 0 -1 -5 -1 0zm3 0l0 0 1 4 2 0 -1 -5 -2 1zm4 -1l0 0 1 5 1 -1 -1 -4 -1 0zm4 -1l0 0 1 5 1 0 -1 -5 -1 0zm4 -1l0 0 1 5 1 0 -1 -5 -1 0zm3 -1l0 0 1 5 2 0 -1 -5 -2 0zm4 0l0 0 1 4 1 0 -1 -5 -1 1zm4 -1l0 0 1 5 1 -1 -1 -4 -1 0zm3 -1l0 0 1 5 2 0 -1 -5 -2 0zm4 -1l0 0 1 5 1 0 -1 -5 -1 0zm4 -1l0 0 1 5 1 0 -1 -5 -1 0zm4 0l0 0 1 4 1 0 -1 -5 -1 1zm3 -1l0 0 1 5 2 -1 -1 -5 -2 1zm4 -1l0 0 1 5 1 0 -1 -5 -1 0zm4 -1l0 0 1 5 1 0 -1 -5 -1 0zm3 -1l0 0 1 5 2 0 -1 -5 -2 0zm4 0l0 0 1 4 1 0 -1 -5 -1 1zm4 -1l0 0 1 5 1 -1 -1 -5 -1 1zm4 -1l0 0 1 5 1 0 -1 -5 -1 0zm3 -1l0 0 1 5 2 0 -2 -5 -1 0zm4 -1l0 0 1 5 1 0 -1 -5 -1 0zm4 0l0 0 1 4 1 0 -1 -5 -1 1zm-216 46l0 0c-1,0 -2,1 -2,2 0,1 1,2 2,1 2,0 2,-1 2,-2 0,-1 -1,-2 -2,-1zm223 -48l0 0c-1,1 -2,2 -2,3 0,1 1,2 3,1 1,0 1,-1 1,-2 0,-1 -1,-2 -2,-2zm-193 7l0 0 4 18 16 -3 -4 -19 -16 4zm25 -6l0 0 4 19 16 -3 -4 -19 -16 3zm26 -5l0 0 4 19 16 -4 -4 -19 -16 4zm30 -7l0 0 4 19 16 -3 -4 -19 -16 3zm26 -5l0 0 4 18 16 -3 -4 -19 -16 4zm26 -6l0 0 4 19 16 -4 -4 -18 -16 3zm25 -5l0 0 4 18 16 -3 -4 -19 -16 4zm22 0l0 0 2 16 -3 4 -175 37c0,1 0,1 0,1l1 3c0,0 0,1 0,1 0,0 0,0 0,0l175 -37c0,0 0,-1 0,-1l7 -6c0,0 0,0 0,0l-4 -21c0,0 -1,-1 -1,-1 0,0 -1,1 -1,1l5 21 -6 5 -174 37 -1 -1 174 -37c0,-1 0,-1 0,-1l4 -4c0,0 0,0 0,0l-2 -17c0,-1 -1,-1 -1,-1 0,0 -1,0 0,1z"/>
    </g>
   </g>
  </g>
 </g>
</svg>
