<?xml version="1.0" encoding="UTF-8"?>
<!DOCTYPE svg PUBLIC "-//W3C//DTD SVG 1.1//EN" "http://www.w3.org/Graphics/SVG/1.1/DTD/svg11.dtd">
<!-- Creator: CorelDRAW X8 -->
<svg xmlns="http://www.w3.org/2000/svg" xml:space="preserve" width="250px" height="250px" version="1.1" style="shape-rendering:geometricPrecision; text-rendering:geometricPrecision; image-rendering:optimizeQuality; fill-rule:evenodd; clip-rule:evenodd"
viewBox="0 0 250 250"
 xmlns:xlink="http://www.w3.org/1999/xlink">
 <defs>
  <style type="text/css">
   <![CDATA[
    .fil0 {fill:#1FB3C1}
   ]]>
  </style>
 </defs>
 <g id="Capa_x0020_1">
  <metadata id="CorelCorpID_0Corel-Layer"/>
  <path class="fil0" d="M248 189c0,0 -1,0 -1,0l-244 0c0,0 -1,0 -1,0 0,1 0,1 0,1 0,1 4,23 32,23l182 0c28,0 32,-22 32,-23 0,0 0,0 0,-1zm-105 16l0 0 -36 0 0 -8 36 0 0 8zm-134 -25l0 0 234 0c2,0 5,-2 5,-5l0 -133c0,-3 -3,-5 -5,-5l-234 0c-3,0 -5,2 -5,5l0 133c0,3 2,5 5,5zm12 -126l0 0 209 0 0 109 -209 0 0 -109zm140 68l0 0 42 0 0 32 -42 0 0 -13 -15 0 0 13 -42 0 0 -13 -15 0 0 13 -42 0 0 -32 42 0 0 14 15 0 0 -14 18 0 0 -29 -18 0 0 -32 42 0 0 32 -19 0 0 29 19 0 0 14 15 0 0 -14zm-48 -53l0 0c5,0 18,0 23,0 0,4 0,11 0,15 -5,0 -18,0 -23,0 0,-4 0,-11 0,-15zm-33 76l0 0c-6,0 -18,0 -23,0 0,-4 0,-11 0,-15 5,0 17,0 23,0 0,4 0,11 0,15zm56 0l0 0c-5,0 -18,0 -23,0 0,-4 0,-11 0,-15 5,0 18,0 23,0 0,4 0,11 0,15zm57 0l0 0c-5,0 -17,0 -23,0 0,-4 0,-11 0,-15 6,0 18,0 23,0 0,4 0,11 0,15z"/>
 </g>
</svg>
