<?xml version="1.0" encoding="UTF-8"?>
<!DOCTYPE svg PUBLIC "-//W3C//DTD SVG 1.1//EN" "http://www.w3.org/Graphics/SVG/1.1/DTD/svg11.dtd">
<!-- Creator: CorelDRAW X8 -->
<svg xmlns="http://www.w3.org/2000/svg" xml:space="preserve" width="250px" height="250px" version="1.1" style="shape-rendering:geometricPrecision; text-rendering:geometricPrecision; image-rendering:optimizeQuality; fill-rule:evenodd; clip-rule:evenodd"
viewBox="0 0 250 250"
 xmlns:xlink="http://www.w3.org/1999/xlink">
 <defs>
  <style type="text/css">
   <![CDATA[
    .fil0 {fill:#1FB3C1}
   ]]>
  </style>
 </defs>
 <g id="Capa_x0020_1">
  <metadata id="CorelCorpID_0Corel-Layer"/>
  <g id="_1892391525120">
   <path class="fil0" d="M71 206c3,0 5,2 5,5 0,3 -2,5 -5,5 -3,0 -5,-2 -5,-5 0,-3 2,-5 5,-5zm56 -164l0 0c28,1 51,23 54,50l-2 0c-3,-26 -25,-46 -52,-47l0 -3zm0 -11l0 0 0 4c33,1 59,26 62,57l4 0c-4,-33 -32,-59 -66,-61zm70 -15l0 0c0,-4 3,-6 6,-6 3,0 6,2 6,6 0,3 -3,6 -6,6 -3,0 -6,-3 -6,-6zm0 219l0 0c0,-8 12,-8 12,0 0,3 -3,6 -6,6 -3,0 -6,-3 -6,-6zm-155 -219l0 0c0,-4 2,-6 6,-6 3,0 5,2 5,6 0,3 -2,6 -5,6 -4,0 -6,-3 -6,-6zm0 219l0 0c0,-3 2,-6 6,-6 3,0 5,3 5,6 0,3 -2,6 -5,6 -4,0 -6,-3 -6,-6zm44 -56l0 0 53 -45c22,-18 22,-17 6,5 -15,19 -29,39 -43,57 -9,7 -26,-10 -16,-17zm42 -69l0 0c0,-2 2,-4 5,-4 2,0 4,2 4,4 0,2 -2,4 -4,4 -3,0 -5,-2 -5,-4zm8 -12l0 0c0,-2 2,-4 4,-4 2,0 4,2 4,4 0,3 -2,5 -4,5 -2,0 -4,-2 -4,-5zm-7 -12l0 0c0,2 2,4 4,4 2,0 4,-2 4,-4 0,-2 -2,-4 -4,-4 -2,0 -4,2 -4,4zm-14 0l0 0c0,-2 2,-4 4,-4 2,0 4,2 4,4 0,3 -2,5 -4,5 -2,0 -4,-2 -4,-5zm-7 12l0 0c0,-2 2,-4 4,-4 3,0 5,2 5,4 0,2 -2,4 -5,4 -2,0 -4,-2 -4,-4zm6 12l0 0c0,-2 2,-4 5,-4 2,0 4,2 4,4 0,2 -2,4 -4,4 -3,0 -5,-2 -5,-4zm-13 -12l0 0c0,14 11,25 25,25 14,0 25,-11 25,-25 0,-14 -11,-25 -25,-25 -14,0 -25,11 -25,25zm-48 0l0 0c0,28 16,53 40,65l43 -31c33,-24 28,-14 12,10l-19 29c39,-2 70,-34 70,-73 0,-40 -33,-73 -73,-73 -40,0 -73,33 -73,73zm6 114l0 0c0,6 5,12 12,12l47 0 0 -11c-24,0 -45,-20 -45,-45l-14 0 0 44zm-25 20l0 0c0,9 8,16 16,16l150 0c8,0 16,-7 16,-16 0,-58 0,-50 0,-214 0,-9 -8,-16 -16,-16l-150 0c-8,0 -16,7 -16,16l0 214zm61 -52l0 0c-3,0 -5,2 -5,5 0,3 2,5 5,5 3,0 5,-2 5,-5 0,-3 -2,-5 -5,-5zm103 2l0 0 -42 0 -11 10 0 31 53 0 0 -41zm-32 8l0 0 16 0 0 19 -16 0 0 -19z"/>
  </g>
 </g>
</svg>
