<?xml version="1.0" encoding="UTF-8"?>
<!DOCTYPE svg PUBLIC "-//W3C//DTD SVG 1.1//EN" "http://www.w3.org/Graphics/SVG/1.1/DTD/svg11.dtd">
<!-- Creator: CorelDRAW X8 -->
<svg xmlns="http://www.w3.org/2000/svg" xml:space="preserve" width="250px" height="250px" version="1.1" style="shape-rendering:geometricPrecision; text-rendering:geometricPrecision; image-rendering:optimizeQuality; fill-rule:evenodd; clip-rule:evenodd"
viewBox="0 0 250 250"
 xmlns:xlink="http://www.w3.org/1999/xlink">
 <defs>
  <style type="text/css">
   <![CDATA[
    .fil0 {fill:#1FB3C1}
   ]]>
  </style>
 </defs>
 <g id="Capa_x0020_1">
  <metadata id="CorelCorpID_0Corel-Layer"/>
  <g id="_1892391667040">
   <path class="fil0" d="M1 1l248 0 0 248 -248 0 0 -248zm59 14l0 0 0 21 130 0 0 -21 -130 0zm0 199l0 0 0 21 130 0 0 -21 -130 0zm17 -122l0 0 0 9 -18 0c-1,-4 -4,-6 -7,-6 -4,0 -7,3 -7,7 0,4 3,8 7,8 3,0 6,-3 7,-6l18 0 0 21 -18 0c-1,-4 -4,-6 -7,-6 -4,0 -7,3 -7,7 0,4 3,8 7,8 3,0 6,-3 7,-6l18 0 0 18 -18 0c-1,-4 -4,-6 -7,-6 -4,0 -7,3 -7,7 0,4 3,8 7,8 3,0 6,-3 7,-6l18 0 0 8 96 0 0 -8 18 0c1,3 4,6 7,6 4,0 7,-4 7,-8 0,-4 -3,-7 -7,-7 -3,0 -6,2 -7,6l-18 0 0 -18 18 0c1,3 4,6 7,6 4,0 7,-4 7,-8 0,-4 -3,-7 -7,-7 -3,0 -6,2 -7,6l-18 0 0 -21 18 0c1,3 4,6 7,6 4,0 7,-4 7,-8 0,-4 -3,-7 -7,-7 -3,0 -6,2 -7,6l-18 0 0 -9 -96 0zm78 -27l0 0c0,-4 -3,-7 -7,-7 -4,0 -8,3 -8,7 0,3 3,6 6,7l0 18 3 0 0 -18c3,-1 6,-4 6,-7zm-45 0l0 0c0,-4 -3,-7 -7,-7 -4,0 -8,3 -8,7 0,3 3,6 6,7l0 18 3 0 0 -18c3,-1 6,-4 6,-7zm21 0l0 0c0,-4 -3,-7 -7,-7 -4,0 -8,3 -8,7 0,3 3,6 6,7l0 18 3 0 0 -18c3,-1 6,-4 6,-7zm24 120l0 0c0,-3 -3,-6 -6,-7l0 -18 -3 0 0 18c-3,1 -6,4 -6,7 0,4 4,7 8,7 4,0 7,-3 7,-7zm-45 0l0 0c0,-3 -3,-6 -6,-7l0 -18 -3 0 0 18c-3,1 -6,4 -6,7 0,4 4,7 8,7 4,0 7,-3 7,-7zm21 0l0 0c0,-3 -3,-6 -6,-7l0 -18 -3 0 0 18c-3,1 -6,4 -6,7 0,4 4,7 8,7 4,0 7,-3 7,-7z"/>
  </g>
 </g>
</svg>
