<?xml version="1.0" encoding="UTF-8"?>
<!DOCTYPE svg PUBLIC "-//W3C//DTD SVG 1.1//EN" "http://www.w3.org/Graphics/SVG/1.1/DTD/svg11.dtd">
<!-- Creator: CorelDRAW X8 -->
<svg xmlns="http://www.w3.org/2000/svg" xml:space="preserve" width="250px" height="250px" version="1.1" style="shape-rendering:geometricPrecision; text-rendering:geometricPrecision; image-rendering:optimizeQuality; fill-rule:evenodd; clip-rule:evenodd"
viewBox="0 0 250 250"
 xmlns:xlink="http://www.w3.org/1999/xlink">
 <defs>
  <style type="text/css">
   <![CDATA[
    .fil0 {fill:#1FB3C1}
   ]]>
  </style>
 </defs>
 <g id="Capa_x0020_1">
  <metadata id="CorelCorpID_0Corel-Layer"/>
  <g id="_1927484490080">
   <path class="fil0" d="M117 221c-11,0 -21,-3 -31,-7 -2,-1 -4,0 -5,2 -1,2 0,4 2,5 11,5 22,7 33,8 0,0 0,0 1,0 2,0 3,-1 4,-3 0,-2 -2,-4 -4,-5zm47 -7l0 0c-10,4 -20,7 -31,7 -2,1 -4,3 -4,5 1,2 2,3 4,3 1,0 1,0 1,0 11,-1 22,-3 33,-8 2,-1 3,-3 2,-5 -1,-2 -3,-3 -5,-2zm-78 -178l0 0c13,-5 26,-8 39,-8 13,0 26,3 39,8 0,0 1,1 1,1 2,0 3,-1 4,-3 1,-2 0,-4 -2,-5 -13,-6 -27,-9 -42,-9 -15,0 -29,3 -42,9 -2,1 -3,3 -2,5 1,2 3,3 5,2zm39 60l0 0c-16,0 -29,13 -29,29 0,16 13,29 29,29 16,0 29,-13 29,-29 0,-16 -13,-29 -29,-29zm0 -34l0 0c35,0 63,28 63,63 0,35 -28,63 -63,63 -35,0 -63,-28 -63,-63 0,-35 28,-63 63,-63zm0 -12l0 0c42,0 75,33 75,75 0,42 -33,75 -75,75 -42,0 -75,-33 -75,-75 0,-42 33,-75 75,-75zm0 -13l0 0c48,0 88,40 88,88 0,48 -40,88 -88,88 -48,0 -88,-40 -88,-88 0,-48 40,-88 88,-88zm86 2l0 0c23,23 35,54 35,86 0,32 -12,63 -35,86 -23,23 -54,35 -86,35 -32,0 -63,-12 -86,-35 -23,-23 -35,-54 -35,-86 0,-32 12,-63 35,-86 23,-23 54,-35 86,-35 32,0 63,12 86,35z"/>
  </g>
 </g>
</svg>
