<?xml version="1.0" encoding="UTF-8"?>
<!DOCTYPE svg PUBLIC "-//W3C//DTD SVG 1.1//EN" "http://www.w3.org/Graphics/SVG/1.1/DTD/svg11.dtd">
<!-- Creator: CorelDRAW X8 -->
<svg xmlns="http://www.w3.org/2000/svg" xml:space="preserve" width="250px" height="250px" version="1.1" style="shape-rendering:geometricPrecision; text-rendering:geometricPrecision; image-rendering:optimizeQuality; fill-rule:evenodd; clip-rule:evenodd"
viewBox="0 0 250 250"
 xmlns:xlink="http://www.w3.org/1999/xlink">
 <defs>
  <style type="text/css">
   <![CDATA[
    .fil0 {fill:#1FB3C1}
   ]]>
  </style>
 </defs>
 <g id="Capa_x0020_1">
  <metadata id="CorelCorpID_0Corel-Layer"/>
  <g id="_1892394301392">
   <path class="fil0" d="M237 76l-104 0 0 -28c0,-1 0,-3 1,-4l-17 0c0,1 0,3 0,4l0 28 -104 0c-6,0 -11,5 -11,11l0 108c0,6 5,11 11,11l224 0c6,0 11,-5 11,-11l0 -108c0,-6 -5,-11 -11,-11zm-73 27l0 0c0,-1 2,-3 3,-3l16 0c1,0 3,2 3,3l0 14c0,2 -2,3 -3,3l-16 0c-1,0 -3,-1 -3,-3l0 -14zm0 31l0 0 0 14c0,1 -1,3 -3,3l-15 0c-2,0 -3,-2 -3,-3l0 -14c0,-2 1,-3 3,-3l15 0c2,0 3,1 3,3zm-15 -34l0 0c2,0 3,2 3,3l0 14c0,2 -1,3 -3,3l-15 0c-2,0 -3,-1 -3,-3l0 -14c0,-1 1,-3 3,-3l15 0zm-18 34l0 0 0 14c0,1 -1,3 -2,3l-16 0c-2,0 -3,-2 -3,-3l0 -14c0,-2 1,-3 3,-3l16 0c1,0 2,1 2,3zm-33 -31l0 0c0,-1 1,-3 3,-3l15 0c2,0 3,2 3,3l0 14c0,2 -1,3 -3,3l-15 0c-2,0 -3,-1 -3,-3l0 -14zm1 31l0 0 0 14c0,1 -2,3 -3,3l-16 0c-1,0 -3,-2 -3,-3l0 -14c0,-2 2,-3 3,-3l16 0c1,0 3,1 3,3zm-68 -17l0 0 0 -14c0,-1 2,-3 3,-3l16 0c1,0 3,2 3,3l0 14c0,2 -2,3 -3,3l-16 0c-1,0 -3,-1 -3,-3zm24 62l0 0c0,1 -1,2 -3,2l-15 0c-2,0 -3,-1 -3,-2l0 -14c0,-2 1,-3 3,-3l15 0c2,0 3,1 3,3l0 14zm11 -31l0 0c0,1 -1,3 -3,3l-16 0c-1,0 -3,-2 -3,-3l0 -14c0,-2 2,-3 3,-3l16 0c2,0 3,1 3,3l0 14zm-1 -31l0 0 0 -14c0,-1 1,-3 2,-3l16 0c2,0 3,2 3,3l0 14c0,2 -1,3 -3,3l-16 0c-1,0 -2,-1 -2,-3zm120 62l0 0c0,1 -2,2 -3,2l-110 0c-2,0 -3,-1 -3,-2l0 -14c0,-2 1,-3 3,-3l110 0c1,0 3,1 3,3l0 14 0 0zm12 -31l0 0c0,1 -1,3 -3,3l-15 0c-2,0 -3,-2 -3,-3l0 -14c0,-2 1,-3 3,-3l15 0c2,0 3,1 3,3l0 14zm0 -31l0 0 0 -14c0,-1 2,-3 3,-3l16 0c2,0 3,2 3,3l0 14c0,2 -1,3 -3,3l-16 0c-1,0 -3,-1 -3,-3zm23 62l0 0c0,1 -2,2 -3,2l-16 0c-1,0 -3,-1 -3,-2l0 -14c0,-2 2,-3 3,-3l16 0c1,0 3,1 3,3l0 14z"/>
  </g>
 </g>
</svg>
