<?xml version="1.0" encoding="UTF-8"?>
<!DOCTYPE svg PUBLIC "-//W3C//DTD SVG 1.1//EN" "http://www.w3.org/Graphics/SVG/1.1/DTD/svg11.dtd">
<!-- Creator: CorelDRAW X7 -->
<svg xmlns="http://www.w3.org/2000/svg" xml:space="preserve" width="238px" height="152px" version="1.1" style="shape-rendering:geometricPrecision; text-rendering:geometricPrecision; image-rendering:optimizeQuality; fill-rule:evenodd; clip-rule:evenodd"
viewBox="0 0 177 113"
 xmlns:xlink="http://www.w3.org/1999/xlink">
 <defs>
  <style type="text/css">
   <![CDATA[
    .fil0 {fill:#1EB1BD}
   ]]>
  </style>
 </defs>
 <g id="Capa_x0020_1">
  <metadata id="CorelCorpID_0Corel-Layer"/>
  <path class="fil0" d="M158 98c0,0 0,0 -1,0l-111 0 0 0c0,0 -10,0 -16,0l-29 0c0,0 -1,0 -1,0 0,0 0,1 0,1 0,0 2,14 21,14l116 0c19,0 21,-14 21,-14 0,0 0,-1 0,-1zm-67 10l-24 0 0 -5 24 0 0 5zm-87 -16l23 0c-1,-3 -2,-7 -3,-11l-11 0 0 -70 134 0 0 22c4,-1 8,-2 11,-2l0 -28c0,-2 -1,-3 -3,-3l-151 0c-1,0 -3,1 -3,3l0 86c0,2 2,3 3,3zm75 0l76 0c2,0 3,-1 3,-3l0 -11 -11 2 0 4 -4 0 -64 8zm92 -57l6 35 -144 26 -6 -36 144 -25zm-68 16l-4 1c-2,0 -3,1 -3,2 0,0 1,1 3,1l5 -1c1,-1 3,-1 2,-2 0,-1 -1,-2 -3,-1zm11 14l5 -1c1,0 3,-1 3,-2 -1,-1 -2,-1 -4,-1l-4 1c-2,0 -3,1 -3,2 0,0 2,1 3,1zm-2 4c0,1 2,1 3,1l5 -1c1,0 3,-1 3,-2 -1,-1 -2,-1 -4,-1l-4 1c-2,0 -3,1 -3,2zm1 -10l5 -1c1,0 3,-1 3,-2 -1,-1 -2,-1 -4,-1l-4 1c-2,0 -3,1 -3,2 0,1 2,1 3,1zm4 -11l-5 1c-2,0 -3,1 -3,2 0,1 2,1 4,1l4 -1c2,0 3,-1 3,-2 0,-1 -2,-1 -3,-1zm13 -2l-4 1c-2,0 -3,1 -3,2 0,1 1,1 3,1l5 -1c1,0 3,-1 2,-2 0,-1 -1,-1 -3,-1zm2 7l-5 1c-1,0 -3,1 -2,2 0,0 1,1 3,1l4 -1c2,-1 3,-1 3,-2 0,-1 -2,-1 -3,-1zm1 5l-5 1c-1,0 -3,1 -3,2 1,1 2,1 4,1l4 -1c2,0 3,-1 3,-2 0,-1 -2,-1 -3,-1zm1 6l-5 1c-1,0 -3,1 -3,2 1,0 2,1 4,1l4 -1c2,-1 3,-1 3,-2 0,-1 -2,-2 -3,-1zm10 -20l-5 0c-2,1 -3,2 -3,2 1,1 2,2 4,1l4 0c2,-1 3,-2 3,-2 0,-1 -2,-2 -3,-1zm2 6l-4 1c-2,0 -3,1 -3,2 0,1 2,1 3,1l5 -1c1,0 3,-1 3,-2 -1,-1 -2,-1 -4,-1zm1 6l-4 1c-2,0 -3,1 -3,2 0,0 2,1 3,1l5 -1c1,-1 3,-1 3,-2 -1,-1 -2,-2 -4,-1zm1 5l-4 1c-2,0 -3,1 -3,2 0,1 2,1 3,1l5 -1c1,0 3,-1 3,-2 -1,-1 -2,-1 -4,-1zm12 7l4 -1c2,0 3,-1 3,-2 0,-1 -2,-1 -3,-1l-5 1c-1,0 -3,1 -3,2 1,1 2,1 4,1zm-1 -6l4 0c2,-1 3,-1 3,-2 0,-1 -2,-2 -3,-1l-5 0c-1,1 -3,2 -3,3 1,0 2,1 4,0zm-1 -5l4 -1c2,0 3,-1 3,-2 0,-1 -2,-1 -3,-1l-5 1c-1,0 -3,1 -3,2 1,1 2,1 4,1zm-1 -6l4 0c2,-1 3,-2 3,-2 0,-1 -2,-2 -3,-1l-5 0c-1,1 -3,2 -3,2 1,1 2,2 4,1zm-1 -6l4 -1c2,-1 3,-1 3,-2 0,-1 -2,-2 -3,-1l-5 1c-2,0 -3,1 -3,2 0,0 2,1 4,1zm-54 33l48 -8c1,-1 3,-1 2,-2 0,-1 -1,-2 -3,-1l-48 8c-1,0 -3,1 -3,2 1,1 2,1 4,1zm-1 -5l4 -1c2,0 3,-1 3,-2 0,-1 -2,-1 -3,-1l-5 1c-1,0 -3,1 -3,2 1,0 2,1 4,1zm-1 -6l4 -1c2,0 3,-1 3,-2 0,0 -1,-1 -3,-1l-5 1c-1,0 -3,1 -2,2 0,1 1,1 3,1zm-1 -5l4 -1c2,0 3,-1 3,-2 0,-1 -1,-1 -3,-1l-5 1c-1,0 -3,1 -2,2 0,1 1,1 3,1zm-12 19l5 -1c1,0 3,-1 2,-2 0,-1 -1,-1 -3,-1l-4 1c-2,0 -3,1 -3,2 0,1 2,1 3,1zm-1 -6l5 -1c1,0 3,-1 2,-2 0,0 -1,-1 -3,-1l-4 1c-2,1 -3,1 -3,2 0,1 2,1 3,1zm-1 -5l5 -1c1,0 3,-1 3,-2 -1,-1 -2,-1 -4,-1l-4 1c-2,0 -3,1 -3,2 0,1 2,1 3,1zm-1 -6l5 -1c1,0 3,-1 3,-2 -1,-1 -2,-1 -4,-1l-4 1c-2,0 -3,1 -3,2 0,1 2,1 3,1zm-4 -6l5 -1c1,0 3,-1 2,-2 0,-1 -1,-1 -3,-1l-4 1c-2,0 -3,1 -3,2 0,1 1,1 3,1zm-7 25l4 -1c2,0 3,-1 3,-2 0,0 -2,-1 -3,-1l-5 1c-1,1 -3,1 -3,2 1,1 2,2 4,1zm-1 -5l4 -1c2,0 3,-1 3,-2 0,-1 -1,-1 -3,-1l-5 1c-1,0 -3,1 -2,2 0,1 1,1 3,1zm-1 -6l4 -1c2,0 3,-1 3,-2 0,0 -1,-1 -3,-1l-5 1c-1,1 -3,1 -2,2 0,1 1,2 3,1zm-1 -5l4 -1c2,0 3,-1 3,-2 0,-1 -1,-1 -3,-1l-5 1c-1,0 -3,1 -2,2 0,1 1,1 3,1zm-3 -7l4 -1c2,0 3,-1 3,-2 0,0 -2,-1 -3,-1l-5 1c-1,0 -3,1 -3,2 1,1 2,1 4,1zm-9 26l5 -1c1,0 3,-1 2,-2 0,-1 -1,-1 -3,-1l-4 1c-2,0 -3,1 -3,2 0,1 2,1 3,1zm-1 -6l5 -1c1,0 3,-1 3,-2 -1,0 -2,-1 -4,0l-4 0c-2,1 -3,1 -3,2 0,1 2,2 3,1zm-1 -5l5 -1c1,0 3,-1 3,-2 -1,-1 -2,-1 -4,-1l-4 1c-2,0 -3,1 -3,2 0,1 2,1 3,1zm-1 -6l5 -1c1,0 3,-1 3,-2 -1,0 -2,-1 -4,-1l-4 1c-2,1 -3,1 -3,2 0,1 2,2 3,1zm-2 -6l5 -1c1,-1 3,-1 2,-2 0,-1 -1,-2 -3,-1l-4 1c-2,0 -3,1 -3,2 0,0 1,1 3,1zm-9 25l4 0c2,-1 3,-2 3,-2 0,-1 -1,-2 -3,-1l-5 0c-1,1 -3,2 -2,2 0,1 1,2 3,1zm-1 -5l4 -1c2,0 3,-1 3,-2 0,-1 -1,-1 -3,-1l-5 1c-1,0 -3,1 -2,2 0,1 1,1 3,1zm-1 -6l4 0c2,-1 3,-2 3,-2 0,-1 -1,-2 -3,-1l-5 0c-1,1 -3,2 -2,2 0,1 1,2 3,1zm-1 -5l4 -1c2,0 3,-1 3,-2 0,-1 -1,-1 -3,-1l-5 1c-1,0 -3,1 -2,2 0,1 1,1 3,1zm-1 -7l4 -1c2,0 3,-1 3,-2 0,-1 -2,-1 -3,-1l-5 1c-1,0 -3,1 -3,2 1,1 2,1 4,1z"/>
 </g>
</svg>
