<?xml version="1.0" encoding="UTF-8"?>
<!DOCTYPE svg PUBLIC "-//W3C//DTD SVG 1.1//EN" "http://www.w3.org/Graphics/SVG/1.1/DTD/svg11.dtd">
<!-- Creator: CorelDRAW X8 -->
<svg xmlns="http://www.w3.org/2000/svg" xml:space="preserve" width="250px" height="250px" version="1.1" style="shape-rendering:geometricPrecision; text-rendering:geometricPrecision; image-rendering:optimizeQuality; fill-rule:evenodd; clip-rule:evenodd"
viewBox="0 0 25000000 25000000"
 xmlns:xlink="http://www.w3.org/1999/xlink">
 <defs>
  <style type="text/css">
   <![CDATA[
    .str2 {stroke:#1FB3C1;stroke-width:75590.6}
    .str1 {stroke:#FEFEFE;stroke-width:75590.6}
    .str0 {stroke:#2B2A29;stroke-width:75590.6}
    .fil1 {fill:none}
    .fil0 {fill:#1FB3C1}
   ]]>
  </style>
 </defs>
 <g id="Слой_x0020_1">
  <metadata id="CorelCorpID_0Corel-Layer"/>
  <path class="fil0" d="M3752241 12545506c-178242,0 -267364,-89122 -445606,-178243 -89122,-267402 -89122,-623887 178242,-802167l6238870 -4456330c267401,-89122 623887,-89122 802129,178280 178281,267364 89159,534728 -178242,713008l-6238832 4456330c-89159,89122 -178280,89122 -356523,89122l-38 0zm-267364 -2762912l0 0c89159,0 267402,0 356523,-89121l2941192 -2228184c178243,-178243 267402,-445607 89122,-713008 -178281,-267402 -534766,-267402 -802168,-89122l-2852033 2139025c-267401,178243 -356523,534766 -178280,713008 89121,178281 267402,267402 445644,267402l0 0zm17647077 -6149710l0 0 -19786101 0c-534766,0 -891251,356485 -891251,891251l0 6327990 0 3030276 0 5882346c0,534766 356485,891251 891251,891251l7219241 0c0,0 267402,0 267402,267402 0,267401 0,-445607 0,-89122 0,178243 0,178243 -178281,178243 -445606,0 -1871660,0 -1871660,0 -356523,0 -713046,356523 -713046,802167 0,445644 356523,713046 713046,713046l8912621 0c445645,0 802168,-267402 802168,-713046 0,-445606 -356485,-802167 -802168,-802167 0,0 -1426016,0 -1871660,0 -89122,0 -178281,0 -178281,-89121 0,-356486 0,267401 0,-89122 0,-178280 178281,-178280 178281,-178280l7308362 0c534766,0 891251,-356485 891251,-891251l0 -15240612c0,-534766 -356485,-891251 -891251,-891251l76 0zm-9001819 17290516l0 0c0,267401 89122,-356486 89122,0 0,0 -89122,89121 -178243,89121 -356523,0 -1158653,0 -1515138,0 -178280,0 -178280,0 -178280,-178243 0,-267401 0,356485 0,89122 0,-178243 178280,-178243 178280,-178243l1425979 0c0,0 178280,0 178280,178243zm8645296 -4634573l0 0 0 -10338676c0,-445644 -445644,-891251 -891289,-891251l-17290553 0c-445607,0 -891251,445607 -891251,891251l0 10338676c0,534766 445644,891251 891251,891251l17290553 0c445645,0 891289,-356485 891289,-891251z"/>
  <ellipse class="fil0" cx="22338663" cy="22612585" rx="1463264" ry="2133771"/>
  <g id="_2391505965584">
   <line class="fil1 str0" x1="22338682" y1="20478813" x2="22338682" y2= "20478813" />
  </g>
  <g id="_2391505995888">
   <line class="fil1 str0" x1="22338682" y1="20478813" x2="22338682" y2= "20478813" />
  </g>
  <g id="_2391505991856">
   <line class="fil1 str0" x1="22338682" y1="20478813" x2="22338682" y2= "20478813" />
  </g>
  <g id="_2391505971568">
   <line class="fil1 str0" x1="22338682" y1="20478813" x2="22338682" y2= "20478813" />
  </g>
  <g id="_2391505970736">
   <line class="fil1 str1" x1="22368616" y1="22156849" x2="22338682" y2= "20478813" />
  </g>
  <g id="_2391505971760">
   <line class="fil1 str1" x1="21751948" y1="22190222" x2="23051955" y2= "22190222" />
  </g>
  <path class="fil1 str2" d="M22338682 20478813c-42784,-387855 1976392,-941556 1208845,-1465436 -660208,-450558 25398,-977992 -1342867,-1376656 -405808,-118262 -1174489,-363326 -1602861,-363326"/>
 </g>
</svg>
