<?xml version="1.0" encoding="UTF-8"?>
<!DOCTYPE svg PUBLIC "-//W3C//DTD SVG 1.1//EN" "http://www.w3.org/Graphics/SVG/1.1/DTD/svg11.dtd">
<!-- Creator: CorelDRAW X8 -->
<svg xmlns="http://www.w3.org/2000/svg" xml:space="preserve" width="250px" height="250px" version="1.1" style="shape-rendering:geometricPrecision; text-rendering:geometricPrecision; image-rendering:optimizeQuality; fill-rule:evenodd; clip-rule:evenodd"
viewBox="0 0 25000000 25000000"
 xmlns:xlink="http://www.w3.org/1999/xlink"
 xmlns:dc="http://purl.org/dc/elements/1.1/"
 xmlns:cc="http://creativecommons.org/ns#"
 xmlns:rdf="http://www.w3.org/1999/02/22-rdf-syntax-ns#"
 xmlns:svg="http://www.w3.org/2000/svg"
 xmlns:sodipodi="http://sodipodi.sourceforge.net/DTD/sodipodi-0.dtd"
 xmlns:inkscape="http://www.inkscape.org/namespaces/inkscape"
 inkscape:version="0.47 r22583"
 sodipodi:docname="New document 2">
 <defs>
  <style type="text/css">
   <![CDATA[
    .str1 {stroke:white;stroke-width:21014.2}
    .str3 {stroke:white;stroke-width:166224}
    .str5 {stroke:white;stroke-width:92333.9}
    .str2 {stroke:#FEFEFE;stroke-width:28800}
    .str0 {stroke:white;stroke-width:184706;stroke-linecap:round;stroke-linejoin:round}
    .str4 {stroke:white;stroke-width:36926;stroke-linecap:round;stroke-linejoin:round}
    .fil1 {fill:none}
    .fil0 {fill:#1FB3C1}
   ]]>
  </style>
 </defs>
 <g id="Слой_x0020_1">
  <metadata id="CorelCorpID_0Corel-Layer"/>
  <sodipodi:namedview id="base" pagecolor="#ffffff" bordercolor="#666666" borderopacity="1.0" inkscape:pageopacity="0.0" inkscape:pageshadow="2" inkscape:zoom="2.8284271" inkscape:cx="56.296959" inkscape:cy="56.59274" inkscape:document-units="px" inkscape:current-layer="layer1" showgrid="false" inkscape:window-width="1920" inkscape:window-height="1115" inkscape:window-x="0" inkscape:window-y="25" inkscape:window-maximized="1"/>
  <g id="layer1" inkscape:label="Layer 1" inkscape:groupmode="layer">
   <g id="g4320">
    <polygon id="path4322" class="fil0 str0" points="12499320,668561 5666989,4613445 5666989,20386253 12499320,24331137 19331613,20386253 19331613,4613445 "/>
    <polygon id="path4324" class="fil0" points="5669899,4611177 5669899,20388974 12501965,24333442 12501965,8555607 " sodipodi:nodetypes="ccccc"/>
    <path id="path4338" class="fil0 str1" d="M6942089 19142599c0,167471 -117544,235351 -262602,151597 -145059,-83717 -262602,-287358 -262602,-454753 0,-167471 117543,-235352 262602,-151635 145058,83754 262602,287395 262602,454791z" sodipodi:ry="5.9796319" sodipodi:rx="5.9796319" sodipodi:cy="163.34666" sodipodi:cx="316.22275" sodipodi:type="arc"/>
    <path id="path4340" class="fil0 str1" d="M11749310 21925769c0,167470 -117544,235351 -262602,151596 -145058,-83716 -262564,-287357 -262564,-454753 0,-167470 117506,-235351 262564,-151634 145058,83754 262602,287395 262602,454791z" sodipodi:type="arc" sodipodi:cx="316.22275" sodipodi:cy="163.34666" sodipodi:rx="5.9796319" sodipodi:ry="5.9796319"/>
    <polygon id="path4342" class="fil0 str2" points="12501965,666709 5669899,4611177 12501965,8555607 19333994,4611177 " sodipodi:nodetypes="ccccc"/>
    <polygon id="path4360" class="fil0" points="12501965,8555607 19333994,4611177 19333994,20388974 12501965,24333442 " sodipodi:nodetypes="ccccc"/>
    <polygon id="path4438" class="fil0 str3" points="6353124,5794510 6353124,12894507 11818664,16050074 11818664,8950077 "/>
    <polygon id="path4440" class="fil0 str3" points="6353124,12894507 6353124,19994542 11818664,23150109 11818664,16050074 "/>
    <polyline id="path4442" class="fil1 str4" points="5669899,4611177 12501965,8555607 12501965,24333442 12501965,24333442 " sodipodi:nodetypes="cccc"/>
    <polyline id="path4444" class="fil1 str4" points="5669899,4611177 5669899,20388974 12501965,24333442 12501965,24333442 "/>
    <line id="path4446" class="fil1 str4" x1="12501965" y1="8555607" x2="19333994" y2= "4611177" />
    <polygon id="path4448" class="fil0 str5" points="18650693,5794510 13185153,8950077 13185153,15261173 18650693,12105644 18650693,5794510 "/>
    <polygon id="path4450" class="fil0 str5" points="18650693,13683408 13185153,16838975 13185153,23150109 18650693,19994542 18650693,13683408 "/>
    <g id="g4452">
     <line id="path4454" class="fil1 str5" x1="13880927" y1="8561277" x2="13868341" y2= "14866741" />
     <line id="path4456" class="fil1 str5" x1="14551529" y1="8161176" x2="14538943" y2= "14466640" />
     <line id="path4458" class="fil1 str5" x1="15234716" y1="7766744" x2="15222168" y2= "14072209" />
     <line id="path4460" class="fil1 str5" x1="15917904" y1="7372275" x2="15905356" y2= "13677777" />
     <line id="path4462" class="fil1 str5" x1="16601130" y1="6977843" x2="16588544" y2= "13283307" />
     <line id="path4464" class="fil1 str5" x1="17284317" y1="6583411" x2="17271732" y2= "12888876" />
     <line id="path4466" class="fil1 str5" x1="17967505" y1="6188942" x2="17954919" y2= "12494444" />
    </g>
    <g id="g4468">
     <line id="path4470" class="fil1 str5" x1="13893475" y1="16455807" x2="13880927" y2= "22761309" />
     <line id="path4472" class="fil1 str5" x1="14564114" y1="16055744" x2="14551529" y2= "22361208" />
     <line id="path4474" class="fil1 str5" x1="15247302" y1="15661274" x2="15234716" y2= "21966776" />
     <line id="path4476" class="fil1 str5" x1="15930490" y1="15266842" x2="15917904" y2= "21572307" />
     <line id="path4478" class="fil1 str5" x1="16613678" y1="14872411" x2="16601130" y2= "21177875" />
     <line id="path4480" class="fil1 str5" x1="17296903" y1="14477941" x2="17284317" y2= "20783406" />
     <line id="path4482" class="fil1 str5" x1="17980091" y1="14083509" x2="17967505" y2= "20388974" />
    </g>
    <polygon id="path4326" class="fil1 str2" points="6378636,17656563 11818740,20783406 11818740,23150109 6353200,19994542 6378712,17656563 "/>
    <polygon id="path4328" class="fil1 str2" points="7036312,20388974 7036312,18022308 6353124,17627877 6353124,19994542 "/>
    <polygon id="path4330" class="fil1 str2" points="11818740,23150109 11818740,20783406 11135552,20388974 11135552,22755640 "/>
    <polygon id="path4332" class="fil1 str2" points="9769063,21966776 9769063,19600073 9085875,19205641 9085875,21572307 "/>
    <polygon id="path4334" class="fil1 str2" points="9085875,21572307 9085875,19205641 8402688,18811209 8402688,21177875 "/>
    <path id="path4336" class="fil1 str2" d="M9366808 20562265c0,167509 -117543,235390 -262602,151635 -145058,-83716 -262602,-287395 -262602,-454753 0,-167471 117544,-235351 262602,-151635 145059,83755 262602,287396 262602,454753z" sodipodi:type="arc" sodipodi:cx="316.22275" sodipodi:cy="163.34666" sodipodi:rx="5.9796319" sodipodi:ry="5.9796319"/>
    <polygon id="path4344" class="fil1" points="6378636,5823197 11818740,8950077 11818740,11316743 6353200,8161176 6378712,5823197 "/>
    <polygon id="path4346" class="fil1" points="7036312,8555607 7036312,6188942 6353124,5794510 6353124,8161176 "/>
    <polygon id="path4348" class="fil1" points="11818740,11316743 11818740,8950077 11135552,8555607 11135552,10922311 "/>
    <polygon id="path4350" class="fil1" points="9769063,10133410 9769063,7766744 9085875,7372275 9085875,9738978 "/>
    <polygon id="path4352" class="fil1" points="9085875,9738978 9085875,7372275 8402688,6977843 8402688,9344509 "/>
    <path id="path4354" class="fil1 str1" d="M9366808 8728937c0,167471 -117543,235351 -262602,151597 -145058,-83717 -262602,-287358 -262602,-454753 0,-167471 117544,-235352 262602,-151635 145059,83754 262602,287395 262602,454791z" sodipodi:ry="5.9796319" sodipodi:rx="5.9796319" sodipodi:cy="163.34666" sodipodi:cx="316.22275" sodipodi:type="arc"/>
    <path id="path4356" class="fil1 str1" d="M6942089 7309232c0,167471 -117544,235351 -262602,151635 -145059,-83755 -262602,-287396 -262602,-454791 0,-167471 117543,-235351 262602,-151597 145058,83717 262602,287358 262602,454753z" sodipodi:type="arc" sodipodi:cx="316.22275" sodipodi:cy="163.34666" sodipodi:rx="5.9796319" sodipodi:ry="5.9796319"/>
    <path id="path4358" class="fil1 str1" d="M11749310 10092402c0,167471 -117544,235351 -262602,151635 -145058,-83755 -262564,-287396 -262564,-454791 0,-167471 117506,-235351 262564,-151597 145058,83717 262602,287358 262602,454753z" sodipodi:ry="5.9796319" sodipodi:rx="5.9796319" sodipodi:cy="163.34666" sodipodi:cx="316.22275" sodipodi:type="arc"/>
    <polygon id="path4362" class="fil1 str5" points="6353124,5794510 11818664,8950077 11818664,11316743 6353124,8161176 "/>
    <polygon id="path4364" class="fil1" points="6378636,8189862 11818740,11316743 11818740,13683408 6353200,10527842 6378712,8189862 "/>
    <polygon id="path4366" class="fil1" points="7036312,10922311 7036312,8555607 6353124,8161176 6353124,10527842 "/>
    <polygon id="path4368" class="fil1" points="11818740,13683408 11818740,11316743 11135552,10922311 11135552,13288977 "/>
    <polygon id="path4370" class="fil1" points="9769063,12500076 9769063,10133410 9085875,9738978 9085875,12105644 "/>
    <polygon id="path4372" class="fil1" points="9085875,12105644 9085875,9738978 8402688,9344509 8402688,11711174 "/>
    <path id="path4374" class="fil1 str1" d="M9366808 11095602c0,167471 -117543,235352 -262602,151597 -145058,-83716 -262602,-287357 -262602,-454753 0,-167471 117544,-235351 262602,-151597 145059,83717 262602,287358 262602,454753z" sodipodi:type="arc" sodipodi:cx="316.22275" sodipodi:cy="163.34666" sodipodi:rx="5.9796319" sodipodi:ry="5.9796319"/>
    <path id="path4376" class="fil1 str1" d="M6942089 9675898c0,167471 -117544,235351 -262602,151635 -145059,-83755 -262602,-287396 -262602,-454753 0,-167509 117543,-235390 262602,-151635 145058,83716 262602,287395 262602,454753z" sodipodi:ry="5.9796319" sodipodi:rx="5.9796319" sodipodi:cy="163.34666" sodipodi:cx="316.22275" sodipodi:type="arc"/>
    <path id="path4378" class="fil1 str1" d="M11749310 12459068c0,167471 -117544,235351 -262602,151634 -145058,-83754 -262564,-287395 -262564,-454790 0,-167471 117506,-235352 262564,-151597 145058,83716 262602,287357 262602,454753z" sodipodi:type="arc" sodipodi:cx="316.22275" sodipodi:cy="163.34666" sodipodi:rx="5.9796319" sodipodi:ry="5.9796319"/>
    <polygon id="path4380" class="fil1 str5" points="6353124,8161176 11818664,11316743 11818664,13683408 6353124,10527842 "/>
    <polygon id="path4382" class="fil1" points="6378636,10556566 11818740,13683408 11818740,16050074 6353200,12894507 6378712,10556566 "/>
    <polygon id="path4384" class="fil1" points="7036312,13288977 7036312,10922311 6353124,10527842 6353124,12894507 "/>
    <polygon id="path4386" class="fil1" points="11818740,16050074 11818740,13683408 11135552,13288977 11135552,15655643 "/>
    <polygon id="path4388" class="fil1" points="9769063,14866741 9769063,12500076 9085875,12105644 9085875,14472310 "/>
    <polygon id="path4390" class="fil1" points="9085875,14472310 9085875,12105644 8402688,11711174 8402688,14077840 "/>
    <path id="path4392" class="fil1 str1" d="M9366808 13462268c0,167471 -117543,235352 -262602,151635 -145058,-83754 -262602,-287395 -262602,-454791 0,-167471 117544,-235351 262602,-151597 145059,83717 262602,287358 262602,454753z" sodipodi:ry="5.9796319" sodipodi:rx="5.9796319" sodipodi:cy="163.34666" sodipodi:cx="316.22275" sodipodi:type="arc"/>
    <path id="path4394" class="fil1 str1" d="M6942089 12042564c0,167470 -117544,235351 -262602,151634 -145059,-83754 -262602,-287395 -262602,-454753 0,-167471 117543,-235351 262602,-151634 145058,83754 262602,287395 262602,454753z" sodipodi:type="arc" sodipodi:cx="316.22275" sodipodi:cy="163.34666" sodipodi:rx="5.9796319" sodipodi:ry="5.9796319"/>
    <path id="path4396" class="fil1 str1" d="M11749310 14825733c0,167471 -117544,235352 -262602,151635 -145058,-83754 -262564,-287395 -262564,-454753 0,-167509 117506,-235389 262564,-151635 145058,83717 262602,287396 262602,454753z" sodipodi:ry="5.9796319" sodipodi:rx="5.9796319" sodipodi:cy="163.34666" sodipodi:cx="316.22275" sodipodi:type="arc"/>
    <polygon id="path4398" class="fil1" points="6378636,15289897 11818740,18416740 11818740,20783406 6353200,17627877 6378712,15289897 "/>
    <polygon id="path4400" class="fil1" points="7036312,18022308 7036312,15655643 6353124,15261173 6353124,17627877 "/>
    <polygon id="path4402" class="fil1" points="11818740,20783406 11818740,18416740 11135552,18022308 11135552,20388974 "/>
    <polygon id="path4404" class="fil1" points="9769063,19600073 9769063,17233407 9085875,16838975 9085875,19205641 "/>
    <polygon id="path4406" class="fil1" points="9085875,19205641 9085875,16838975 8402688,16444544 8402688,18811209 "/>
    <path id="path4408" class="fil1 str1" d="M9366808 18195600c0,167471 -117543,235351 -262602,151634 -145058,-83754 -262602,-287395 -262602,-454753 0,-167470 117544,-235389 262602,-151634 145059,83754 262602,287395 262602,454753z" sodipodi:ry="5.9796319" sodipodi:rx="5.9796319" sodipodi:cy="163.34666" sodipodi:cx="316.22275" sodipodi:type="arc"/>
    <path id="path4410" class="fil1 str1" d="M6942089 16775933c0,167471 -117544,235351 -262602,151597 -145059,-83717 -262602,-287358 -262602,-454753 0,-167471 117543,-235351 262602,-151635 145058,83754 262602,287396 262602,454791z" sodipodi:type="arc" sodipodi:cx="316.22275" sodipodi:cy="163.34666" sodipodi:rx="5.9796319" sodipodi:ry="5.9796319"/>
    <path id="path4412" class="fil1 str1" d="M11749310 19559103c0,167471 -117544,235351 -262602,151597 -145058,-83717 -262564,-287396 -262564,-454753 0,-167471 117506,-235352 262564,-151635 145058,83754 262602,287395 262602,454791z" sodipodi:ry="5.9796319" sodipodi:rx="5.9796319" sodipodi:cy="163.34666" sodipodi:cx="316.22275" sodipodi:type="arc"/>
    <polygon id="path4414" class="fil1 str5" points="6353124,10527842 11818664,13683408 11818664,16050074 6353124,12894507 "/>
    <polygon id="path4416" class="fil1 str5" points="6353124,12894507 11818664,16050074 11818664,18416740 6353124,15261173 "/>
    <polygon id="path4418" class="fil1" points="6378636,12923232 11818740,16050074 11818740,18416740 6353200,15261173 6378712,12923232 "/>
    <polygon id="path4420" class="fil1" points="7036312,15655643 7036312,13288977 6353124,12894507 6353124,15261173 "/>
    <polygon id="path4422" class="fil1" points="11818740,18416740 11818740,16050074 11135552,15655643 11135552,18022308 "/>
    <polygon id="path4424" class="fil1" points="9769063,17233407 9769063,14866741 9085875,14472310 9085875,16838975 "/>
    <polygon id="path4426" class="fil1" points="9085875,16838975 9085875,14472310 8402688,14077840 8402688,16444544 "/>
    <path id="path4428" class="fil1 str1" d="M9366808 15828934c0,167471 -117543,235351 -262602,151635 -145058,-83755 -262602,-287396 -262602,-454791 0,-167471 117544,-235351 262602,-151597 145059,83717 262602,287395 262602,454753z" sodipodi:type="arc" sodipodi:cx="316.22275" sodipodi:cy="163.34666" sodipodi:rx="5.9796319" sodipodi:ry="5.9796319"/>
    <path id="path4430" class="fil1 str1" d="M6942089 14409267c0,167471 -117544,235351 -262602,151597 -145059,-83717 -262602,-287395 -262602,-454753 0,-167471 117543,-235351 262602,-151635 145058,83755 262602,287396 262602,454791z" sodipodi:ry="5.9796319" sodipodi:rx="5.9796319" sodipodi:cy="163.34666" sodipodi:cx="316.22275" sodipodi:type="arc"/>
    <path id="path4432" class="fil1 str1" d="M11749310 17192399c0,167471 -117544,235389 -262602,151635 -145058,-83754 -262564,-287395 -262564,-454753 0,-167471 117506,-235351 262564,-151635 145058,83755 262602,287396 262602,454753z" sodipodi:type="arc" sodipodi:cx="316.22275" sodipodi:cy="163.34666" sodipodi:rx="5.9796319" sodipodi:ry="5.9796319"/>
    <polygon id="path4434" class="fil1 str5" points="6353124,15261173 11818664,18416740 11818664,20783406 6353124,17627877 "/>
    <polygon id="path4436" class="fil1 str5" points="6353124,17627877 11818664,20783406 11818664,23150109 6353124,19994542 "/>
   </g>
  </g>
 </g>
</svg>
