<?xml version="1.0" encoding="UTF-8"?>
<!DOCTYPE svg PUBLIC "-//W3C//DTD SVG 1.1//EN" "http://www.w3.org/Graphics/SVG/1.1/DTD/svg11.dtd">
<!-- Creator: CorelDRAW X8 -->
<svg xmlns="http://www.w3.org/2000/svg" xml:space="preserve" width="250px" height="250px" version="1.1" style="shape-rendering:geometricPrecision; text-rendering:geometricPrecision; image-rendering:optimizeQuality; fill-rule:evenodd; clip-rule:evenodd"
viewBox="0 0 250 250"
 xmlns:xlink="http://www.w3.org/1999/xlink">
 <defs>
  <style type="text/css">
   <![CDATA[
    .fil0 {fill:#1FB3C1}
   ]]>
  </style>
 </defs>
 <g id="Capa_x0020_1">
  <metadata id="CorelCorpID_0Corel-Layer"/>
  <g id="_1927498262672">
   <path class="fil0" d="M2 180l214 -150 28 39 4 14 -73 51 6 9 -61 43 -6 -9 -72 49 -12 -5 -28 -41zm14 12l0 0 6 8 208 -145 -6 -8 -208 145zm14 18l0 0 4 6 206 -144 -4 -6 -206 144zm101 -45l0 0c-1,0 -1,2 -1,4 1,1 3,1 4,0l27 -18c1,-1 1,-3 0,-4 0,-1 -2,-2 -3,-1l-27 19zm9 -5l0 0c-1,0 -1,0 0,1l1 2c0,0 1,0 1,0 0,0 1,-1 0,-1l-1 -2c0,-1 -1,-1 -1,0zm11 -8l0 0c-1,0 -1,1 -1,1l2 2c0,1 0,1 1,0 0,0 0,0 0,-1l-1 -2c-1,0 -1,0 -1,0l0 0zm-6 4l0 0c-1,0 -1,1 0,1l1 2c0,1 1,1 1,0l0 0c0,0 1,0 0,-1l-1 -2c0,0 -1,0 -1,0zm-64 -119l0 0 6 -11c1,0 1,-1 0,-2 0,0 -1,0 -1,0l-32 0c-1,0 -1,0 -2,1l-1 4c-24,2 -43,22 -43,46 0,18 10,34 26,41l-3 8c0,1 0,2 1,2 0,0 0,0 1,0 0,0 1,0 1,0l6 -7c4,1 9,2 14,2 25,0 46,-21 46,-46 0,-15 -7,-29 -19,-38zm-3 34l0 0c1,0 1,1 0,1l-31 38c2,0 5,1 7,1 20,0 36,-16 36,-36 0,-11 -6,-22 -15,-28l-13 23 15 0c1,0 1,0 1,1zm-47 8l0 0c0,0 0,-1 0,-1l15 -38c-7,2 -14,6 -19,12 -6,6 -9,14 -9,23 0,13 8,26 20,32l10 -27 -15 0c-1,0 -1,0 -2,-1z"/>
  </g>
 </g>
</svg>
