<?xml version="1.0" encoding="UTF-8"?>
<!DOCTYPE svg PUBLIC "-//W3C//DTD SVG 1.1//EN" "http://www.w3.org/Graphics/SVG/1.1/DTD/svg11.dtd">
<!-- Creator: CorelDRAW X8 -->
<svg xmlns="http://www.w3.org/2000/svg" xml:space="preserve" width="250px" height="250px" version="1.1" style="shape-rendering:geometricPrecision; text-rendering:geometricPrecision; image-rendering:optimizeQuality; fill-rule:evenodd; clip-rule:evenodd"
viewBox="0 0 250 250"
 xmlns:xlink="http://www.w3.org/1999/xlink">
 <defs>
  <style type="text/css">
   <![CDATA[
    .fil0 {fill:#1FB3C1}
   ]]>
  </style>
 </defs>
 <g id="Capa_x0020_1">
  <metadata id="CorelCorpID_0Corel-Layer"/>
  <g id="_1927483655312">
   <path class="fil0" d="M219 168l-11 -11c35,-35 35,-91 0,-125l11 -11c40,40 40,106 0,147zm-29 -29l0 0 10 10c31,-30 31,-79 0,-110l-10 11c24,24 24,64 0,89zm-9 -9l0 0 -10 -10c14,-14 14,-37 0,-51l10 -11c20,20 20,53 0,72zm-139 -98l0 0 -11 -11c-40,40 -40,106 0,147l11 -11c-35,-35 -35,-91 0,-125zm8 117l0 0c-31,-30 -31,-79 0,-110l10 11c-24,24 -24,64 0,89l-10 10zm19 -19l0 0 10 -10c-14,-14 -14,-37 0,-51l-10 -11c-20,20 -20,53 0,72zm117 68l0 0c9,0 16,7 16,15 0,9 -7,16 -16,16l-122 0c-9,0 -16,-7 -16,-16 0,-8 7,-15 16,-15l37 0 21 -76c-10,-1 -18,-10 -18,-20 0,-12 10,-21 21,-21 11,0 21,9 21,21 0,10 -8,19 -18,20l21 76 37 0z"/>
  </g>
 </g>
</svg>
