<?xml version="1.0" encoding="UTF-8"?>
<!DOCTYPE svg PUBLIC "-//W3C//DTD SVG 1.1//EN" "http://www.w3.org/Graphics/SVG/1.1/DTD/svg11.dtd">
<!-- Creator: CorelDRAW X8 -->
<svg xmlns="http://www.w3.org/2000/svg" xml:space="preserve" width="250px" height="250px" version="1.1" style="shape-rendering:geometricPrecision; text-rendering:geometricPrecision; image-rendering:optimizeQuality; fill-rule:evenodd; clip-rule:evenodd"
viewBox="0 0 250 250"
 xmlns:xlink="http://www.w3.org/1999/xlink">
 <defs>
  <style type="text/css">
   <![CDATA[
    .fil0 {fill:#1FB3C1}
   ]]>
  </style>
 </defs>
 <g id="Capa_x0020_1">
  <metadata id="CorelCorpID_0Corel-Layer"/>
  <path class="fil0" d="M249 190c0,0 -1,0 -1,0l-246 0c0,0 -1,0 -1,0 0,0 0,1 0,1 0,0 4,23 32,23l184 0c28,0 32,-23 32,-23 0,0 0,-1 0,-1zm-106 16l0 0 -36 0 0 -8 36 0 0 8zm-135 -25l0 0 78 0c-4,-3 -7,-6 -9,-10 -1,-3 -3,-5 -3,-8l-53 0 0 -109 210 0 0 109 -22 0c-3,2 -5,4 -8,5l-25 13 68 0c2,0 5,-3 5,-5l0 -135c0,-3 -3,-5 -5,-5l-236 0c-3,0 -5,2 -5,5l0 135c0,2 2,5 5,5zm115 0l0 0c6,-4 9,-10 13,-16 0,-1 1,-1 1,-2l6 0c3,6 7,11 10,14 1,0 1,0 1,1 1,1 2,2 3,3l-34 0zm59 -18l0 0 -9 4c1,-1 1,-2 1,-4l8 0zm-90 0l0 0c2,6 7,10 17,10 1,-1 2,-1 3,-1 -2,1 -3,1 -4,1 -5,1 -9,0 -11,-1 -4,-2 -7,-4 -9,-8 0,0 0,-1 0,-1l4 0zm50 -49l0 0c-5,-10 -1,-22 9,-27 10,-5 23,-1 28,9 0,1 0,1 0,2 14,-1 28,6 34,18 9,17 2,38 -15,46l-30 16 0 0c-5,2 -15,-9 -23,-24 0,-3 6,-2 6,-2 6,11 12,17 15,15 3,-1 1,-12 -5,-24 -6,-12 -13,-20 -17,-19 -3,2 -2,9 2,19 -1,0 -3,0 -5,0l0 0c10,0 16,5 19,8 0,0 0,1 0,2 -1,1 -2,1 -3,1 -1,-1 -6,-5 -14,-4 -13,1 -13,27 -34,30 -29,3 -33,-29 -30,-36 3,-7 6,-10 12,-9 6,1 9,6 8,12 0,1 -6,20 9,19 12,-1 18,-21 32,-22 -5,-14 -7,-25 -3,-27l0 0 5 -3zm26 -13l0 0c0,0 0,0 0,0 0,0 0,0 -1,0l-15 8c-2,-4 0,-10 4,-12 5,-2 10,0 12,4z"/>
 </g>
</svg>
