<?xml version="1.0" encoding="UTF-8"?>
<!DOCTYPE svg PUBLIC "-//W3C//DTD SVG 1.1//EN" "http://www.w3.org/Graphics/SVG/1.1/DTD/svg11.dtd">
<!-- Creator: CorelDRAW X8 -->
<svg xmlns="http://www.w3.org/2000/svg" xml:space="preserve" width="250px" height="250px" version="1.1" style="shape-rendering:geometricPrecision; text-rendering:geometricPrecision; image-rendering:optimizeQuality; fill-rule:evenodd; clip-rule:evenodd"
viewBox="0 0 250 250"
 xmlns:xlink="http://www.w3.org/1999/xlink">
 <defs>
  <style type="text/css">
   <![CDATA[
    .fil0 {fill:#1FB3C1}
   ]]>
  </style>
 </defs>
 <g id="Capa_x0020_1">
  <metadata id="CorelCorpID_0Corel-Layer"/>
  <g id="_1927498219280">
   <path class="fil0" d="M93 100c-22,0 -40,18 -40,40 0,22 18,39 40,39 22,0 39,-17 39,-39 0,-22 -17,-40 -39,-40zm16 -51l0 0c0,-1 0,-3 2,-3 40,-23 70,-32 91,-23 20,9 30,33 31,74l15 0 0 51 -50 0 0 -51 28 0c-2,-38 -10,-59 -27,-66 -17,-8 -44,-1 -78,18l51 0c6,0 11,5 11,11l0 159c0,6 -5,11 -11,11l-159 0c-6,0 -11,-5 -11,-11l0 -159c0,-6 5,-11 11,-11l96 0zm-16 113l0 0c-13,0 -23,-10 -23,-22 0,-13 10,-23 23,-23 12,0 22,10 22,23 0,12 -10,22 -22,22zm-71 -102l0 0c-5,0 -9,4 -9,9 0,5 4,8 9,8 5,0 8,-3 8,-8 0,-5 -3,-9 -8,-9zm0 159l0 0c5,0 8,-4 8,-8 0,-5 -3,-9 -8,-9 -5,0 -9,4 -9,9 0,4 4,8 9,8zm124 -26l0 0c-2,2 -5,3 -8,3 -3,0 -6,-1 -8,-3l-2 -2c-10,7 -22,11 -35,11 -13,0 -25,-4 -36,-11l-2 2c-2,2 -5,3 -8,3 -2,0 -5,-1 -8,-3 -4,-4 -4,-12 0,-16l2 -2c-6,-10 -11,-22 -11,-35 0,-13 5,-26 11,-36l-2 -2c-4,-4 -4,-11 0,-16 5,-4 12,-4 16,0l2 2c11,-7 23,-11 36,-11 13,0 25,4 35,11l2 -2c5,-4 12,-4 16,0 5,5 5,12 0,16l-2 2c7,10 11,23 11,36 0,13 -4,25 -11,35l2 2c5,4 5,12 0,16zm18 26l0 0c4,0 8,-4 8,-8 0,-5 -4,-9 -8,-9 -5,0 -9,4 -9,9 0,4 4,8 9,8zm0 -142l0 0c4,0 8,-3 8,-8 0,-5 -4,-9 -8,-9 -5,0 -9,4 -9,9 0,5 4,8 9,8z"/>
  </g>
 </g>
</svg>
