<?xml version="1.0" encoding="UTF-8"?>
<!DOCTYPE svg PUBLIC "-//W3C//DTD SVG 1.1//EN" "http://www.w3.org/Graphics/SVG/1.1/DTD/svg11.dtd">
<!-- Creator: CorelDRAW X8 -->
<svg xmlns="http://www.w3.org/2000/svg" xml:space="preserve" width="250px" height="250px" version="1.1" style="shape-rendering:geometricPrecision; text-rendering:geometricPrecision; image-rendering:optimizeQuality; fill-rule:evenodd; clip-rule:evenodd"
viewBox="0 0 250 250"
 xmlns:xlink="http://www.w3.org/1999/xlink">
 <defs>
  <style type="text/css">
   <![CDATA[
    .fil0 {fill:#1FB3C1}
   ]]>
  </style>
 </defs>
 <g id="Capa_x0020_1">
  <metadata id="CorelCorpID_0Corel-Layer"/>
  <g id="_1927498246928">
   <path class="fil0" d="M30 248l190 0c7,0 14,-6 14,-14l0 -132c0,-7 -7,-14 -14,-14l-77 0 -2 3c-1,2 -3,4 -5,5 -2,0 -4,1 -6,1 -2,-1 -5,-1 -6,-3 -2,-1 -4,-3 -4,-5l-1 -1 -19 0 0 0c-3,3 -6,5 -8,7 -2,2 -4,4 -6,6 -2,2 -4,4 -5,7 -2,2 -3,5 -4,8 -1,3 -2,6 -2,9 0,3 0,6 0,9 0,3 1,6 2,9 0,3 0,6 -1,9 -1,2 -4,5 -6,6l0 0 -1 0 0 0c-3,1 -6,1 -8,0 -3,0 -6,-2 -7,-5 -1,-1 -2,-2 -3,-4 0,-1 -1,-3 -2,-4 -4,-9 -7,-19 -7,-28 -1,-10 0,-19 3,-29l-15 0c-7,0 -14,7 -14,14l0 132c0,8 7,14 14,14zm47 -160l0 0c-1,1 -2,2 -3,3 -2,3 -4,6 -6,9 -2,3 -4,7 -5,11 -2,4 -3,9 -3,13 0,2 -1,4 0,7 -2,-5 -3,-10 -3,-15 -1,-8 0,-16 3,-24 0,-1 0,-2 1,-4l16 0zm-29 139l0 0c-5,0 -10,-5 -10,-11l0 -42 9 0c0,22 18,40 40,40l0 13 -39 0zm101 4l0 0c-25,0 -47,-14 -57,-34l27 -39c21,-28 12,-24 -9,-10l-25 17c1,-34 29,-62 64,-62 35,0 64,29 64,64 0,36 -29,64 -64,64zm0 -42l0 0c-12,0 -22,-10 -22,-22 0,-12 10,-22 22,-22 12,0 22,10 22,22 0,12 -10,22 -22,22zm-11 -11l0 0c-2,0 -4,-2 -4,-4 0,-2 2,-4 4,-4 2,0 4,2 4,4 0,2 -2,4 -4,4zm11 5l0 0c-2,0 -4,-1 -4,-4 0,-2 2,-3 4,-3 2,0 4,1 4,3 0,3 -2,4 -4,4zm10 -6l0 0c-2,0 -4,-1 -4,-3 0,-2 2,-4 4,-4 2,0 4,2 4,4 0,2 -2,3 -4,3zm0 -12l0 0c-2,0 -3,-2 -3,-4 0,-2 1,-4 3,-4 3,0 4,2 4,4 0,2 -1,4 -4,4zm-10 -6l0 0c-3,0 -4,-2 -4,-4 0,-2 1,-4 4,-4 2,0 3,2 3,4 0,2 -1,4 -3,4zm-11 6l0 0c-2,0 -4,-1 -4,-3 0,-2 2,-4 4,-4 2,0 4,2 4,4 0,2 -2,3 -4,3zm-61 38l0 0c-6,9 -21,-7 -15,-14 16,-13 34,-26 50,-38 20,-15 21,-14 5,5l-40 47zm-49 39l0 0c-3,0 -5,-2 -5,-5 0,-3 2,-5 5,-5 3,0 5,2 5,5 0,3 -2,5 -5,5zm193 0l0 0c-2,0 -5,-2 -5,-5 0,-3 3,-5 5,-5 3,0 6,2 6,5 0,3 -3,5 -6,5zm-193 -137l0 0c-3,0 -5,-3 -5,-6 0,-2 2,-5 5,-5 3,0 5,3 5,5 0,3 -2,6 -5,6zm193 0l0 0c-2,0 -5,-3 -5,-6 0,-2 3,-5 5,-5 3,0 6,3 6,5 0,3 -3,6 -6,6zm-13 61l0 0 -3 0c-1,-28 -23,-51 -51,-54l0 -3c29,3 53,27 54,57zm-10 0l0 0 -2 0c-1,-23 -19,-42 -42,-45l0 -2c24,2 43,22 44,47zm-144 50l0 0c0,2 -2,4 -5,4 -2,0 -4,-2 -4,-4 0,-3 2,-5 4,-5 3,0 5,2 5,5zm127 -206l0 0c2,1 3,2 4,3 1,2 1,4 0,5l-50 69c-1,2 -3,2 -4,2 -2,0 -4,-1 -5,-3l-7 -16c-1,0 -1,0 -1,0 -4,2 -8,4 -11,5 -8,5 -15,9 -20,14 -5,5 -9,9 -13,15 -3,6 -6,13 -7,21 0,6 0,12 2,20 1,2 0,5 -3,6 0,0 0,0 0,0 -2,1 -5,0 -6,-2 -1,-2 -3,-5 -4,-7 -8,-16 -9,-35 -4,-53 2,-6 5,-12 8,-18 5,-8 10,-15 16,-22 7,-7 12,-13 18,-18 2,-2 4,-3 5,-4 0,0 0,0 0,0l-8 -18c0,-2 0,-4 1,-5 1,-2 3,-2 5,-2l84 8z"/>
  </g>
 </g>
</svg>
