<?xml version="1.0" encoding="UTF-8"?>
<!DOCTYPE svg PUBLIC "-//W3C//DTD SVG 1.1//EN" "http://www.w3.org/Graphics/SVG/1.1/DTD/svg11.dtd">
<!-- Creator: CorelDRAW X8 -->
<svg xmlns="http://www.w3.org/2000/svg" xml:space="preserve" width="250px" height="250px" version="1.1" style="shape-rendering:geometricPrecision; text-rendering:geometricPrecision; image-rendering:optimizeQuality; fill-rule:evenodd; clip-rule:evenodd"
viewBox="0 0 250 250"
 xmlns:xlink="http://www.w3.org/1999/xlink">
 <defs>
  <style type="text/css">
   <![CDATA[
    .fil0 {fill:#1FB3C1}
   ]]>
  </style>
 </defs>
 <g id="Capa_x0020_1">
  <metadata id="CorelCorpID_0Corel-Layer"/>
  <g id="_1927498207504">
   <path class="fil0" d="M249 195c0,0 0,0 -1,0l-109 0c-3,1 -7,3 -11,4l-3 1 -3 -1c-4,-1 -8,-3 -11,-4l-109 0c-1,0 -1,0 -1,0 0,0 0,1 0,1 0,0 3,23 32,23l184 0c29,0 32,-23 32,-23 0,0 0,-1 0,-1zm-105 16l0 0 -38 0 0 -8 38 0 0 8zm-137 -25l0 0 87 0c-9,-5 -16,-12 -21,-18l-53 0 0 -109 29 0 0 -3 0 -11 11 0c11,0 21,-1 30,-4l-83 0c-2,0 -5,2 -5,5l0 135c0,3 3,5 5,5zm149 0l0 0 88 0c3,0 5,-2 5,-5l0 -135c0,-3 -2,-5 -5,-5l-84 0c9,3 19,4 30,4l11 0 0 11 0 3 30 0 0 109 -54 0c-5,6 -12,13 -21,18zm-55 -127l0 0 48 0c-9,-4 -17,-8 -24,-14 -7,6 -15,10 -24,14zm44 109l0 0 -40 0c5,4 12,7 20,10 8,-3 15,-6 20,-10z"/>
   <path class="fil0" d="M190 56c-27,0 -47,-8 -65,-25 -18,17 -38,25 -65,25 0,44 -9,108 65,133 74,-25 65,-89 65,-133zm-75 97l0 0 -42 -42 18 -18 24 23 44 -44 18 19 -62 62z"/>
  </g>
 </g>
</svg>
