<?xml version="1.0" encoding="UTF-8"?>
<!DOCTYPE svg PUBLIC "-//W3C//DTD SVG 1.1//EN" "http://www.w3.org/Graphics/SVG/1.1/DTD/svg11.dtd">
<!-- Creator: CorelDRAW X8 -->
<svg xmlns="http://www.w3.org/2000/svg" xml:space="preserve" width="250px" height="250px" version="1.1" style="shape-rendering:geometricPrecision; text-rendering:geometricPrecision; image-rendering:optimizeQuality; fill-rule:evenodd; clip-rule:evenodd"
viewBox="0 0 250 250"
 xmlns:xlink="http://www.w3.org/1999/xlink">
 <defs>
  <style type="text/css">
   <![CDATA[
    .fil0 {fill:#1FB3C1}
   ]]>
  </style>
 </defs>
 <g id="Capa_x0020_1">
  <metadata id="CorelCorpID_0Corel-Layer"/>
  <g id="_1892391662272">
   <path class="fil0" d="M29 169c-2,-2 -6,-2 -8,0l-7 8c-1,0 -2,1 -2,2l-7 29c-1,2 0,4 1,6l4 3 -3 3c-6,5 -6,14 0,19 5,6 14,6 19,0l3 -2 4 3c1,2 3,2 5,2l29 -8c1,0 2,-1 3,-1l7 -8c2,-2 2,-6 0,-8l-48 -48zm90 71l0 0c1,2 3,3 5,3 2,0 3,0 4,-1 3,-2 4,-7 2,-9l-9 -13c-3,-3 -7,-4 -10,-1 -3,2 -3,6 -1,9l9 12zm43 -44l0 0c1,2 3,3 5,3 1,0 3,0 4,-1 3,-2 3,-7 1,-10l-9 -12c-2,-3 -6,-4 -9,-1 -3,2 -4,6 -1,9l9 12zm49 -44l0 0c1,1 3,1 5,1 2,-1 3,-1 4,-2 2,-3 2,-8 -1,-10l-12 -9c-3,-3 -7,-2 -10,1 -2,3 -1,7 1,9l13 10zm-190 -19l0 0c1,1 3,2 5,2 2,0 3,0 4,-1 3,-2 4,-6 2,-9l-9 -13c-2,-2 -7,-3 -10,-1 -3,2 -3,6 -1,9l9 13zm43 -44l0 0c1,1 3,2 5,2 1,0 3,0 4,-1 3,-2 3,-6 1,-9l-9 -13c-2,-3 -6,-3 -9,-1 -3,2 -4,6 -1,9l9 13zm149 -56l0 0 -11 10c-2,3 -2,7 0,10 1,1 2,1 4,2 2,0 4,-1 5,-2l12 -11c2,-2 2,-6 0,-9 -3,-3 -7,-3 -10,0zm10 63l0 0c1,0 1,0 2,0l16 0c3,1 6,-2 6,-6 0,-4 -3,-7 -6,-7l-16 0c-3,0 -6,3 -6,6 0,3 1,6 4,7zm-116 -52l0 0c1,2 3,3 5,4 1,0 2,0 4,-1 3,-1 5,-5 4,-8l-6 -15c-1,-3 -5,-5 -8,-3 -4,1 -6,5 -4,8l5 15zm53 -9l0 0c3,0 7,-2 7,-6l3 -15c1,-3 -2,-7 -5,-7 -4,-1 -8,1 -8,5l-3 15c0,4 2,7 6,8zm28 55l0 0c7,7 7,18 0,25l-96 96c-1,1 -3,2 -5,2 -1,0 -3,-1 -4,-2l-48 -48c-1,-1 -2,-2 -2,-4 0,-2 1,-3 2,-5l96 -95c7,-7 19,-7 25,0 7,7 7,18 0,25l-65 66 6 6 65 -66c7,-7 19,-7 26,0zm-9 16l0 0 -92 92 -38 -39 91 -91c2,-2 5,-2 7,0 2,2 2,5 0,7l-70 70c-2,3 -2,7 0,9l15 15c3,3 7,3 9,0l70 -70c2,-2 6,-2 8,0 2,2 2,5 0,7z"/>
  </g>
 </g>
</svg>
