<?xml version="1.0" encoding="UTF-8"?>
<!DOCTYPE svg PUBLIC "-//W3C//DTD SVG 1.1//EN" "http://www.w3.org/Graphics/SVG/1.1/DTD/svg11.dtd">
<!-- Creator: CorelDRAW X8 -->
<svg xmlns="http://www.w3.org/2000/svg" xml:space="preserve" width="250px" height="250px" version="1.1" style="shape-rendering:geometricPrecision; text-rendering:geometricPrecision; image-rendering:optimizeQuality; fill-rule:evenodd; clip-rule:evenodd"
viewBox="0 0 250 250"
 xmlns:xlink="http://www.w3.org/1999/xlink">
 <defs>
  <style type="text/css">
   <![CDATA[
    .fil0 {fill:#1FB3C1}
   ]]>
  </style>
 </defs>
 <g id="Capa_x0020_1">
  <metadata id="CorelCorpID_0Corel-Layer"/>
  <g id="_1927487028016">
   <g>
    <path class="fil0" d="M9 30l84 0c4,0 7,3 7,6l0 13c-24,0 -48,0 -72,0 -3,6 -4,14 -3,21l-3 0c-4,0 -20,-7 -20,-20l0 -14c0,-3 3,-6 7,-6zm80 5l0 0c-3,0 -5,2 -5,5 0,2 2,4 5,4 2,0 4,-2 4,-4 0,-3 -2,-5 -4,-5zm-42 0l0 0c-2,0 -5,2 -5,5 0,2 3,4 5,4 2,0 5,-2 5,-4 0,-3 -3,-5 -5,-5zm-30 15l0 0c-3,0 -5,2 -5,5 0,2 2,4 5,4 2,0 5,-2 5,-4 0,-3 -3,-5 -5,-5zm51 -14l0 0c-2,0 -3,2 -3,4 0,1 1,3 3,3 2,0 3,-2 3,-3 0,-2 -1,-4 -3,-4zm-51 0l0 0c-2,0 -3,2 -3,4 0,1 1,3 3,3 2,0 3,-2 3,-3 0,-2 -1,-4 -3,-4zm17 17l0 0c-4,9 -4,18 0,27l23 0c-1,-9 -2,-18 0,-27l-23 0zm29 0l0 0c-1,9 -1,18 0,27l27 0c-1,-9 -2,-18 0,-27l-27 0zm33 0l0 0c-1,9 -1,18 0,27l5 0 0 -27 -5 0zm19 0l0 0 16 0c-2,9 -1,18 0,26l-16 0c-3,-9 -3,-18 0,-26zm-12 5l0 0 8 0c-2,5 -2,11 0,17l-8 0 0 -17zm30 0l0 0 63 0 0 17 -36 0 0 -10c-5,-4 -15,-3 -19,0l0 10 -8 0c-1,-6 -1,-12 0,-17zm10 10l0 0c0,22 0,45 0,68 5,0 10,0 15,0 0,-23 0,-46 0,-68 -4,-4 -12,-3 -15,0z"/>
    <path class="fil0" d="M241 220l-84 0c-4,0 -7,-3 -7,-6l0 -13c24,0 48,0 72,0 3,-6 4,-14 3,-21l3 0c4,0 20,7 20,20l0 14c0,3 -3,6 -7,6zm-80 -5l0 0c3,0 5,-2 5,-5 0,-2 -2,-4 -5,-4 -2,0 -4,2 -4,4 0,3 2,5 4,5zm42 0l0 0c3,0 5,-2 5,-5 0,-2 -2,-4 -5,-4 -2,0 -5,2 -5,4 0,3 3,5 5,5zm30 -15l0 0c3,0 5,-2 5,-5 0,-2 -2,-4 -5,-4 -2,0 -5,2 -5,4 0,3 3,5 5,5zm-51 14l0 0c2,0 3,-2 3,-4 0,-1 -1,-3 -3,-3 -2,0 -3,2 -3,3 0,2 1,4 3,4zm51 0l0 0c2,0 3,-2 3,-4 0,-1 -1,-3 -3,-3 -2,0 -3,2 -3,3 0,2 1,4 3,4zm-17 -17l0 0c4,-9 4,-18 0,-27l-23 0c1,9 2,18 0,27l23 0zm-29 0l0 0c1,-9 1,-18 0,-27l-27 0c1,9 2,18 0,27l27 0zm-33 0l0 0c1,-9 1,-18 0,-27l-5 0 0 27 5 0zm-19 0l0 0 -16 0c2,-9 1,-18 0,-26l16 0c3,9 3,18 0,26zm12 -5l0 0 -8 0c2,-5 2,-11 0,-17l8 0 0 17zm-30 0l0 0 -63 0 0 -17 36 0 0 10c5,4 15,3 19,0l0 -10 8 0c1,6 1,12 0,17zm-10 -10l0 0c0,-22 0,-45 0,-68 -5,0 -10,0 -15,0 0,23 0,46 0,68 4,4 12,3 15,0z"/>
   </g>
  </g>
 </g>
</svg>
