<?xml version="1.0" encoding="UTF-8"?>
<!DOCTYPE svg PUBLIC "-//W3C//DTD SVG 1.1//EN" "http://www.w3.org/Graphics/SVG/1.1/DTD/svg11.dtd">
<!-- Creator: CorelDRAW X8 -->
<svg xmlns="http://www.w3.org/2000/svg" xml:space="preserve" width="250px" height="250px" version="1.1" style="shape-rendering:geometricPrecision; text-rendering:geometricPrecision; image-rendering:optimizeQuality; fill-rule:evenodd; clip-rule:evenodd"
viewBox="0 0 250 250"
 xmlns:xlink="http://www.w3.org/1999/xlink">
 <defs>
  <style type="text/css">
   <![CDATA[
    .fil0 {fill:#1FB3C1}
   ]]>
  </style>
 </defs>
 <g id="Capa_x0020_1">
  <metadata id="CorelCorpID_0Corel-Layer"/>
  <g id="_1892391527232">
   <path class="fil0" d="M129 2c31,0 60,12 81,31 2,-1 4,-2 6,-2 4,0 8,3 8,8 0,2 -1,4 -3,6 18,21 29,48 29,77 0,5 -1,9 -1,14l0 0c0,40 -49,75 -4,112l-237 0 0 -53c-4,0 -8,-4 -8,-8 0,-4 4,-8 8,-8l0 -53 0 0c0,-1 0,-3 0,-4 0,-29 10,-55 27,-76 -3,0 -6,-4 -6,-7 0,-5 4,-8 8,-8 3,0 6,2 8,5 21,-21 51,-34 84,-34zm0 89l0 0c7,0 13,2 19,6l28 -43c-14,-9 -30,-14 -47,-14 -4,0 -7,0 -11,0 9,21 12,37 11,51zm55 -32l0 0c-9,20 -20,34 -30,43 3,4 6,9 8,15l50 -13c-5,-18 -15,-33 -28,-45zm29 55l0 0c-20,8 -36,11 -51,11l0 0c0,4 0,8 -2,12l49 17c3,-9 5,-19 5,-29 0,-4 0,-8 -1,-11zm-8 49l0 0c-21,-4 -37,-11 -48,-19 -4,4 -8,8 -13,11l23 46c16,-8 30,-21 38,-38zm-47 42l0 0c-13,-18 -19,-33 -22,-47 -2,0 -5,0 -7,0 -3,0 -5,0 -8,0l-11 50c6,1 12,2 19,2 10,0 20,-2 29,-5zm-57 0l0 0c1,-22 6,-38 13,-50 -5,-3 -9,-6 -12,-11l-43 30c10,14 25,25 42,31zm-47 -39l0 0c16,-15 30,-24 44,-29 -2,-4 -3,-8 -3,-12 0,-4 1,-7 2,-10l-50 -15c-2,8 -3,16 -3,25 0,15 4,29 10,41zm-3 -75l0 0c22,3 37,9 49,17 5,-8 12,-14 21,-16l-12 -50c-26,6 -48,25 -58,49zm-43 91l0 0c-2,0 -4,2 -4,5 0,3 2,5 4,5 3,0 5,-2 5,-5 0,-3 -2,-5 -5,-5zm200 15l0 0c-2,0 -4,2 -4,4 0,3 2,5 4,5 3,0 5,-2 5,-5 0,-2 -2,-4 -5,-4zm8 -163l0 0c-3,0 -5,2 -5,5 0,2 2,4 5,4 2,0 5,-2 5,-4 0,-3 -3,-5 -5,-5zm-179 0l0 0c-3,0 -5,2 -5,5 0,2 2,4 5,4 3,0 5,-2 5,-4 0,-3 -2,-5 -5,-5z"/>
  </g>
 </g>
</svg>
