<?xml version="1.0" encoding="UTF-8"?>
<!DOCTYPE svg PUBLIC "-//W3C//DTD SVG 1.1//EN" "http://www.w3.org/Graphics/SVG/1.1/DTD/svg11.dtd">
<!-- Creator: CorelDRAW X8 -->
<svg xmlns="http://www.w3.org/2000/svg" xml:space="preserve" width="250px" height="250px" version="1.1" style="shape-rendering:geometricPrecision; text-rendering:geometricPrecision; image-rendering:optimizeQuality; fill-rule:evenodd; clip-rule:evenodd"
viewBox="0 0 250 250"
 xmlns:xlink="http://www.w3.org/1999/xlink">
 <defs>
  <style type="text/css">
   <![CDATA[
    .fil0 {fill:#1FB3C1}
   ]]>
  </style>
 </defs>
 <g id="Capa_x0020_1">
  <metadata id="CorelCorpID_0Corel-Layer"/>
  <g id="_1927487536400">
   <path class="fil0" d="M180 103c12,0 22,10 22,22 0,12 -10,22 -22,22 -12,0 -22,-10 -22,-22 0,-12 10,-22 22,-22zm0 -8l0 0c-17,0 -30,13 -30,30 0,17 13,30 30,30 17,0 30,-13 30,-30 0,-17 -13,-30 -30,-30zm-42 30l0 0 11 18 10 18 21 0 21 0 10 -18 11 -18 -11 -18 -10 -18 -21 0 -21 0 -10 18 -11 18zm-73 -19l0 0c11,0 19,8 19,19 0,11 -8,19 -19,19 -10,0 -19,-8 -19,-19 0,-11 9,-19 19,-19zm0 -17l0 0c-20,0 -36,16 -36,36 0,20 16,36 36,36 20,0 36,-16 36,-36 0,-20 -16,-36 -36,-36zm-63 -23l0 0 0 118 246 0 0 -118 -246 0zm178 52l0 0c-4,0 -7,3 -7,7 0,4 3,7 7,7 4,0 7,-3 7,-7 0,-4 -3,-7 -7,-7zm-115 0l0 0c-4,0 -7,3 -7,7 0,4 3,7 7,7 4,0 8,-3 8,-7 0,-4 -4,-7 -8,-7zm0 -23l0 0c-17,0 -30,13 -30,30 0,17 13,30 30,30 17,0 30,-13 30,-30 0,-17 -13,-30 -30,-30z"/>
  </g>
 </g>
</svg>
