<?xml version="1.0" encoding="UTF-8"?>
<!DOCTYPE svg PUBLIC "-//W3C//DTD SVG 1.1//EN" "http://www.w3.org/Graphics/SVG/1.1/DTD/svg11.dtd">
<!-- Creator: CorelDRAW X8 -->
<svg xmlns="http://www.w3.org/2000/svg" xml:space="preserve" width="250px" height="250px" version="1.1" style="shape-rendering:geometricPrecision; text-rendering:geometricPrecision; image-rendering:optimizeQuality; fill-rule:evenodd; clip-rule:evenodd"
viewBox="0 0 250 250"
 xmlns:xlink="http://www.w3.org/1999/xlink">
 <defs>
  <style type="text/css">
   <![CDATA[
    .fil0 {fill:#1FB3C1}
   ]]>
  </style>
 </defs>
 <g id="Capa_x0020_1">
  <metadata id="CorelCorpID_0Corel-Layer"/>
  <g id="_1927486576320">
   <path class="fil0" d="M40 43l165 0 43 43 0 111 -6 10 -232 0 -8 -8 0 -114 38 -42zm9 52l0 0 0 59 147 0 0 -59 -147 0zm3 2l0 0 0 54 140 0 0 -54 -140 0zm10 -12l0 0c-3,0 -4,2 -4,4l0 4 51 0 0 -4c0,-2 -2,-4 -4,-4l-43 0zm77 0l0 0c-2,0 -4,2 -4,4l0 4 51 0 0 -4c0,-2 -2,-4 -4,-4l-43 0zm0 80l0 0 43 0c2,0 4,-2 4,-4l0 -4 -51 0 0 4c0,2 2,4 4,4zm-77 0l0 0 43 0c2,0 4,-2 4,-4l0 -4 -51 0 0 4c0,2 1,4 4,4zm-23 -19l0 0c0,2 1,4 4,4l4 0 0 -51 -4 0c-3,0 -4,2 -4,4l0 43zm167 0l0 0 0 -43c0,-2 -2,-4 -4,-4l-4 0 0 51 4 0c2,0 4,-2 4,-4zm-148 -42l0 0 0 16 12 0 0 -3 14 0 0 3 9 0 0 -3 15 0 0 3 8 0 0 -3 15 0 0 3 8 0 0 -3 15 0 0 3 7 0 0 -3 15 0 0 3 11 0 0 -16 -129 0zm20 41l0 0 0 4 16 0 0 -4 -16 0zm73 0l0 0 0 4 15 0 0 -4 -15 0z"/>
  </g>
 </g>
</svg>
