<?xml version="1.0" encoding="UTF-8"?>
<!DOCTYPE svg PUBLIC "-//W3C//DTD SVG 1.1//EN" "http://www.w3.org/Graphics/SVG/1.1/DTD/svg11.dtd">
<!-- Creator: CorelDRAW X7 -->
<svg xmlns="http://www.w3.org/2000/svg" xml:space="preserve" width="231px" height="179px" version="1.1" style="shape-rendering:geometricPrecision; text-rendering:geometricPrecision; image-rendering:optimizeQuality; fill-rule:evenodd; clip-rule:evenodd"
viewBox="0 0 20 15"
 xmlns:xlink="http://www.w3.org/1999/xlink">
 <defs>
  <style type="text/css">
   <![CDATA[
    .fil0 {fill:#1EB1BD}
   ]]>
  </style>
 </defs>
 <g id="Capa_x0020_1">
  <metadata id="CorelCorpID_0Corel-Layer"/>
  <path class="fil0" d="M18 14c0,0 0,0 0,0l-18 0c0,0 0,0 0,0 0,0 0,0 0,0 0,0 0,1 2,1l14 0c2,0 2,-1 2,-1 0,0 0,0 0,0zm-8 1l-2 0 0 -1 2 0 0 1zm-9 -2l17 0c0,0 0,0 0,0l0 -4 -1 0 0 3 -16 0 0 -8 9 0 0 -1 3 0 0 -1 -12 0c-1,0 -1,0 -1,1l0 10c0,0 0,0 1,0zm7 -3l1 0 0 -2 -1 0 0 2zm1 -2l1 0 0 -2 -1 0 0 2zm1 1l1 0 0 -1 -1 0 0 1zm1 -2l2 0 0 -1 -2 0 0 1zm3 -5l1 0 0 -2 -1 0 0 2zm-4 3l2 0 0 -2 -2 0 0 2zm3 0l3 0 0 -2 -3 0 0 2zm2 4l3 0 0 -3 -3 0 0 3zm1 -5l4 0 0 -4 -4 0 0 4zm-3 5l1 0 0 -2 -1 0 0 2z"/>
 </g>
</svg>
