<?xml version="1.0" encoding="UTF-8"?>
<!DOCTYPE svg PUBLIC "-//W3C//DTD SVG 1.1//EN" "http://www.w3.org/Graphics/SVG/1.1/DTD/svg11.dtd">
<!-- Creator: CorelDRAW X8 -->
<svg xmlns="http://www.w3.org/2000/svg" xml:space="preserve" width="250px" height="250px" version="1.1" style="shape-rendering:geometricPrecision; text-rendering:geometricPrecision; image-rendering:optimizeQuality; fill-rule:evenodd; clip-rule:evenodd"
viewBox="0 0 250 250"
 xmlns:xlink="http://www.w3.org/1999/xlink">
 <defs>
  <style type="text/css">
   <![CDATA[
    .fil0 {fill:#1FB3C1}
   ]]>
  </style>
 </defs>
 <g id="Слой_x0020_1">
  <metadata id="CorelCorpID_0Corel-Layer"/>
  <path class="fil0" d="M136 46l-4 11 -14 -3 -7 0 35 26 -18 0 7 12 -55 47 57 -18 -27 31 40 -22 4 15 13 -11 19 10 -6 -21 21 0 -34 -20 26 -12 -31 -1c0,0 14,-41 13,-40 -2,2 -30,17 -30,17l-9 -21zm113 144l0 0c0,0 0,0 -1,0l-246 0c-1,0 -1,0 -1,0 0,0 0,1 0,1 0,0 3,23 32,23l184 0c29,0 32,-23 32,-23 0,0 0,-1 0,-1zm-105 16l0 0 -38 0 0 -8 38 0 0 8zm-137 -25l0 0c-2,0 -5,-2 -5,-5l0 -135c0,-3 3,-5 5,-5l237 0c3,0 5,2 5,5l0 135c0,3 -2,5 -5,5l-237 0zm13 -127l0 0 211 0 0 109 -211 0 0 -109z"/>
 </g>
</svg>
